<svg xmlns="http://www.w3.org/2000/svg" viewBox="0 0 475.65 173.88"><defs><style>.cls-1{fill:#c7eafb;}.cls-2{fill:#007447;}.cls-3{fill:#68ad45;}.cls-4{fill:#fff;}.cls-5{fill:#231f20;}</style></defs><title>2018 CIMOAsset 5</title><g id="Layer_2" data-name="Layer 2"><g id="Layer_2-2" data-name="Layer 2"><polygon class="cls-1" points="0 0 0 80.85 21.49 68.84 49.15 65.6 50.84 64.88 87.76 36.66 89.75 34.61 110.96 40.3 113.93 41.45 123.16 47.6 129.85 51.85 136.26 59.94 145.55 67.27 153.18 70.92 173.89 77.84 173.89 0 0 0"/><polygon class="cls-2" points="145.55 67.27 136.26 59.94 129.85 51.85 123.16 47.6 113.93 41.45 110.96 40.3 89.75 34.61 87.76 36.66 50.84 64.88 49.15 65.6 21.49 68.84 0 80.85 0 93.16 6.52 93.13 15.09 92.44 39.14 86.42 68.74 77.78 89.57 73.01 96.75 72.6 102.13 72.68 104.63 71.85 111.5 73.43 120.83 74.39 144.69 82.73 150.69 85.18 157.84 87.87 173.89 90.72 173.89 77.84 153.18 70.92 145.55 67.27"/><polygon class="cls-3" points="150.69 85.18 144.69 82.73 120.83 74.39 111.5 73.43 104.63 71.85 102.13 72.68 96.75 72.6 89.57 73.01 68.74 77.78 39.14 86.42 15.09 92.44 6.52 93.13 0 93.16 0 105.51 6.12 104.05 58.17 87.25 97.21 76.31 98.88 76.66 102.25 77.12 104.66 76.28 106.05 76.75 121.93 78.52 124.48 79.07 155.94 89.86 173.89 92.02 173.89 90.72 157.84 87.87 150.69 85.18"/><path class="cls-2" d="M27.36,109.06c3.47-1,7.43-1.67,11.1-2.77,6.21-1.88,12.26-3.76,18.5-5.55,3.47-1.22,10.33-3.3,10.9-3.3s10.9,2.25,16,3.29S94,103,99.11,104c3,.58,6.18,1.45,9.25,1.85,8.5,1.19,17.2,1.45,25.67,2.78,1.71.26,3.73,1.68,5.34,2.32,2.95,1.15,6.19,2.4,9.26,3.7.66.29,13.63,3.4,14.78,3.42h10.48V92l-17.95-2.16L124.48,79.07l-2.55-.55L106,76.75l-1.38-.47-2.41.84-3.37-.46-1.67-.36-39,11-52,16.8L0,105.51v8.85c4.27-.44,7.43-1.08,11.64-1.6C17,111.32,22.05,110.16,27.36,109.06Z"/><path class="cls-3" d="M173.89,173.7V118H163.41c-1.15,0-14.12-3.13-14.78-3.42-3.07-1.3-6.31-2.55-9.26-3.7-1.61-.64-3.63-2.06-5.34-2.32-8.47-1.33-17.17-1.59-25.67-2.78-3.07-.4-6.3-1.27-9.25-1.85-5.09-1-10.23-2.22-15.26-3.24s-15.41-3.29-16-3.29-7.43,2.08-10.9,3.3c-6.24,1.79-12.29,3.67-18.5,5.55-3.67,1.1-7.63,1.79-11.1,2.77-5.31,1.1-10.41,2.26-15.72,3.7-4.21.52-7.37,1.16-11.64,1.6v59.52H173.89C174,173.88,173.89,173.8,173.89,173.7Z"/><path class="cls-4" d="M36.32,138.15V136c0-4.52-1.76-4.83-8.31-4.83-7.53,0-8.83,1.25-8.83,8.88v8.62c.06,7.79,1,9.3,8.83,9.3,6,0,8.73-.21,8.73-5.76V150.1h7.48v2.54C44.37,164.38,37.67,164,28,164.38c-13.71.52-16.15-4-16.31-15.37v-8.94c0-12.46,4.83-15.27,16.31-15.27,9.71,0,15.27.06,15.79,11.22v2.13Z"/><path class="cls-4" d="M61.54,164.07H54.06V125.12h7.48Z"/><path class="cls-4" d="M99.19,164.07H92.48L80.12,131.4H80l.62,32.67H73.11V125.12h12L95.7,154h.21l10.39-28.92h12.26v38.95h-7.48l.62-32.82h-.26Z"/><path class="cls-4" d="M161.79,139v10.49c0,12.46-4.84,14.85-16.62,14.85-12,0-16.47-2.08-16.47-14.85V139c0-12.11,4.11-14.24,16.47-14.24C156.38,124.8,161.79,126.52,161.79,139Zm-25.61,0v10.49c0,7.73,1.51,8.46,9,8.46,6.8,0,9.14-.93,9.14-8.46V139c.15-7.33-2.5-7.85-9.14-7.85C137.11,131.19,136.34,132.86,136.18,139Z"/><path class="cls-5" d="M210.17,58.22V56.49c0-3.69-1.44-3.94-6.77-3.94-6.14,0-7.2,1-7.2,7.24v7c0,6.35.8,7.58,7.2,7.58,4.91,0,7.11-.17,7.11-4.7V68h6.1V70c.12,9.57-5.34,9.23-13.21,9.57-11.18.42-13.17-3.27-13.3-12.54V59.79c0-10.16,3.94-12.45,13.3-12.45,7.91,0,12.45,0,12.87,9.15v1.73Z"/><path class="cls-5" d="M241.86,72.28c0,7-4,7.33-10.38,7.33-8.51,0-10.24-2.71-10.24-11.31,0-8,1.27-11.43,10.24-11.43,9.15,0,10.38,2.66,10.38,12.36H226.57c0,4.79.13,6.31,4.91,6.31,3,0,5,0,5-3.26Zm-5.34-6.44c0-4.57-.67-4.91-5-4.91-4.61,0-4.91,1-4.91,4.91Z"/><path class="cls-5" d="M253,57.12v3.35h.17c1.18-3.26,3.85-3.6,7-3.6,5.85,0,7.62,2.41,7.62,7.83V79.35h-5.33V65.25c0-3.22-.72-4.32-4.15-4.32-4.66,0-5.29,2.2-5.29,6.18V79.35h-5.34V57.12Z"/><path class="cls-5" d="M271.73,57.12h2.8v-5h5.33v5h8.52v4.07h-8.52V72.58c.05,2,.05,3,2.29,3,3,0,2.67-2.37,2.67-4.7h4.7c.08,6.73-1.61,8.77-7.37,8.77s-7.62-1.36-7.62-7V61.19h-2.8Z"/><path class="cls-5" d="M298.71,57.12,298.59,60h.21c1.06-2.45,3.35-3.17,5.93-3.17,4.7,0,5.84,2.79,5.84,7v1.78h-5V64.49c0-2.25-.2-3.56-2.71-3.56-3.17,0-4.1,1.82-4,4.7V79.35h-5.33V57.12Z"/><path class="cls-5" d="M335.78,68.26c0,8.59-1.19,11.35-10.46,11.35s-10.46-2.76-10.46-11.35,1.19-11.39,10.46-11.39S335.78,59.62,335.78,68.26Zm-15.58,0c0,5.93.38,7.24,5.12,7.24s5.12-1.31,5.12-7.24-.38-7.37-5.12-7.37S320.2,62.29,320.2,68.3Z"/><path class="cls-5" d="M372.8,76h-.17c-1.35,2.92-3.81,3.6-6.94,3.6-8.25,0-8.51-5.21-8.51-12,0-6.52.89-10.71,8.51-10.71,2.71,0,5.55.5,6.69,3.21h.21V47.59h5.34V79.35h-5.34Zm-10.28-8.43c0,5-.13,8,4.74,8,5.46,0,5.25-2.67,5.25-8,0-4.74-.64-6.65-5.25-6.65C363.57,60.93,362.52,62,362.52,67.58Z"/><path class="cls-5" d="M404.4,72.28c0,7-4,7.33-10.37,7.33-8.52,0-10.25-2.71-10.25-11.31,0-8,1.27-11.43,10.25-11.43,9.14,0,10.37,2.66,10.37,12.36H389.12c0,4.79.13,6.31,4.91,6.31,3,0,5,0,5-3.26Zm-5.33-6.44c0-4.57-.68-4.91-5-4.91-4.61,0-4.91,1-4.91,4.91Z"/><path class="cls-5" d="M197.42,121.71h-6.09V90h6.09Z"/><path class="cls-5" d="M209.63,99.48v3.35h.17c1.18-3.26,3.85-3.6,7-3.6,5.85,0,7.62,2.41,7.62,7.83v14.65h-5.33v-14.1c0-3.21-.72-4.32-4.15-4.32-4.66,0-5.29,2.21-5.29,6.19v12.23h-5.34V99.48Z"/><path class="cls-5" d="M243,121.71h-8l-6.73-22.23h5.46l5.21,18.59H239l4.88-18.59h5.58Z"/><path class="cls-5" d="M273.08,114.64c0,7-4,7.33-10.38,7.33-8.51,0-10.24-2.71-10.24-11.31,0-8,1.27-11.43,10.24-11.43,9.15,0,10.38,2.67,10.38,12.36H257.79c0,4.79.13,6.31,4.91,6.31,3,0,5,0,5-3.26Zm-5.34-6.43c0-4.58-.67-4.92-5-4.92-4.61,0-4.91,1-4.91,4.92Z"/><path class="cls-5" d="M292.4,105.54c0-2.67-1.4-2.67-4.24-2.67s-4.78,0-4.78,2.92c0,2.2.59,2.29,5.25,2.5,5.25.25,9.91-.13,9.91,7.07,0,6-4.74,6.61-10.38,6.61-6.05,0-10.11,0-10.11-7.24h5.33c.09,3.22.85,3.6,4.78,3.6,3.18,0,5,.08,5-3,0-2-.13-2.92-5.51-3-8.17-.13-9.65-1.23-9.65-6.91,0-6.09,4.4-6.22,10.11-6.22,4.37,0,9.57.08,9.57,6.31Z"/><path class="cls-5" d="M301.22,99.48H304v-5h5.34v5h8.51v4.07h-8.51v11.39c0,2,0,3,2.28,3,3,0,2.67-2.37,2.67-4.7H319c.09,6.74-1.61,8.77-7.37,8.77s-7.62-1.36-7.62-7V103.55h-2.79Z"/><path class="cls-5" d="M328.41,94.49h-5.34V90h5.34Zm0,27.22h-5.34V99.48h5.34Z"/><path class="cls-5" d="M349.54,118.54h-.13c-1.39,2.92-4.23,3.43-6.94,3.43-7.62,0-8.51-4.19-8.51-10.72,0-6.81.25-12,8.51-12,3.13,0,5.59.68,6.94,3.6h.17l-.21-3.35h5.34v22.19c0,8-2.54,9.91-10.67,9.91-5.42,0-9.49-.93-9.15-7.58h5c0,3,1.14,3.51,4.15,3.51,4.53,0,5.5-.93,5.5-4.74Zm-10.24-8.6c0,5,0,8,4.74,8,5.33,0,5.33-2.66,5.33-8,0-4.74-.71-6.65-5.33-6.65C340.35,103.29,339.3,104.35,339.3,109.94Z"/><path class="cls-5" d="M375.93,118.92h-.13c-1.05,3-4.31,3-6.89,3-5.05,0-8.3-1.06-8.3-7.07,0-5.34,2.79-6.82,8.3-6.82,2.71,0,5.38,0,6.65,2.54h.17v-2.88c0-3.6-.3-4.87-4.75-4.87-2.33,0-4.19.21-4.19,3.09h-5.34c0-6.48,4.45-6.73,9.53-6.73,7.12,0,10.08,1.1,10.08,8.55v13.93h-5.33Zm-10-4c0,3.13,1.27,3.43,4.87,3.43,2.84,0,4.92-.26,4.92-3.43s-2.3-3.18-4.92-3.18S365.94,111.72,365.94,114.9Z"/><path class="cls-5" d="M407.2,113.25c0,7.28-2.63,8.72-10.13,8.72-8.17,0-9.94-2.37-9.94-11.35,0-7.79,1.22-11.39,9.94-11.39,6.61,0,10.13,1,10.13,8h-5.34c0-3.38-1.06-4-4.79-4-4.57,0-4.61,1.61-4.61,7.33,0,5.55-.08,7.28,4.61,7.28,4.37,0,4.79-.76,4.79-4.65Zm-7,11.64-5.55,2.2-1.14-2,4.82-2.92Z"/><path class="cls-5" d="M427.1,118.92H427c-1.05,3-4.31,3-6.89,3-5.05,0-8.3-1.06-8.3-7.07,0-5.34,2.79-6.82,8.3-6.82,2.71,0,5.38,0,6.65,2.54h.16v-2.88c0-3.6-.29-4.87-4.74-4.87-2.33,0-4.19.21-4.19,3.09h-5.34c0-6.48,4.45-6.73,9.53-6.73,7.12,0,10.08,1.1,10.08,8.55v13.93h-5.34Zm3.52-25.58c-1.1,2-2.5,3.69-4.92,3.69S421,94.7,419.23,94.7c-1.23,0-1.78.8-2.29,1.78L414.23,95c1.06-1.9,2.5-3.59,4.87-3.59s4.79,2.41,6.52,2.41c1.11,0,1.87-1,2.38-1.91ZM417.11,114.9c0,3.13,1.27,3.43,4.87,3.43,2.84,0,4.91-.26,4.91-3.43s-2.29-3.18-4.91-3.18S417.11,111.72,417.11,114.9Z"/><path class="cls-5" d="M459.13,110.62c0,8.6-1.19,11.35-10.46,11.35s-10.46-2.75-10.46-11.35,1.19-11.39,10.46-11.39S459.13,102,459.13,110.62Zm-15.58,0c0,5.93.37,7.24,5.12,7.24s5.12-1.31,5.12-7.24-.38-7.37-5.12-7.37S443.55,104.65,443.55,110.66Z"/><path class="cls-5" d="M205.89,160.73h-.17c-1.35,2.92-3.81,3.6-6.94,3.6-8.25,0-8.51-5.21-8.51-12,0-6.52.89-10.71,8.51-10.71,2.71,0,5.55.51,6.7,3.22h.2V132.32H211v31.76h-5.34Zm-10.28-8.43c0,5-.13,8,4.74,8,5.46,0,5.25-2.67,5.25-8,0-4.74-.64-6.64-5.25-6.64C196.66,145.66,195.61,146.72,195.61,152.3Z"/><path class="cls-5" d="M237.49,157c0,7-4,7.33-10.37,7.33-8.51,0-10.25-2.71-10.25-11.31,0-8,1.27-11.43,10.25-11.43,9.14,0,10.37,2.67,10.37,12.37H222.21c0,4.78.13,6.31,4.91,6.31,3,0,5,0,5-3.27Zm-5.33-6.43c0-4.57-.68-4.91-5-4.91-4.61,0-4.91,1-4.91,4.91Z"/><path class="cls-5" d="M281.08,164.08h-5.46l-10.07-26.64h-.13l.5,26.64h-6.09V132.32h9.78l8.64,23.58h.17l8.47-23.58h10v31.76h-6.1l.51-26.76h-.21Z"/><path class="cls-5" d="M323.91,153c0,8.6-1.18,11.35-10.46,11.35S303,161.58,303,153s1.18-11.39,10.45-11.39S323.91,144.34,323.91,153Zm-15.58,0c0,5.93.38,7.25,5.12,7.25s5.13-1.32,5.13-7.25-.39-7.36-5.13-7.36S308.33,147,308.33,153Z"/><path class="cls-5" d="M335.18,141.85v3.34h.17c1.19-3.26,3.86-3.6,7-3.6,5.85,0,7.62,2.42,7.62,7.84v14.65h-5.33V150c0-3.22-.72-4.32-4.15-4.32-4.66,0-5.3,2.2-5.3,6.18v12.24h-5.33V141.85Z"/><path class="cls-5" d="M353.91,141.85h2.8v-5H362v5h8.51v4.06H362V157.3c0,2,0,3,2.29,3,3,0,2.66-2.38,2.66-4.7h4.71c.08,6.73-1.61,8.76-7.37,8.76s-7.62-1.35-7.62-7V145.91h-2.8Z"/><path class="cls-5" d="M390.59,161.28h-.13c-1.06,3-4.31,3.05-6.9,3.05-5,0-8.3-1.06-8.3-7.07,0-5.34,2.8-6.82,8.3-6.82,2.71,0,5.38,0,6.65,2.54h.17V150.1c0-3.6-.3-4.87-4.74-4.87-2.33,0-4.2.22-4.2,3.09h-5.33c0-6.47,4.45-6.73,9.53-6.73,7.11,0,10.08,1.1,10.08,8.56v13.93h-5.34Zm-10-4c0,3.13,1.27,3.43,4.87,3.43,2.83,0,4.91-.26,4.91-3.43s-2.29-3.18-4.91-3.18S380.6,154.08,380.6,157.26Z"/><path class="cls-5" d="M407.79,141.85v3.34H408c1.19-3.26,3.85-3.6,7-3.6,5.84,0,7.62,2.42,7.62,7.84v14.65h-5.34V150c0-3.22-.71-4.32-4.15-4.32-4.65,0-5.29,2.2-5.29,6.18v12.24h-5.33V141.85Z"/><path class="cls-5" d="M434.56,145.19h.17c1.19-3.26,3.86-3.6,7-3.6,5.85,0,7.62,2.42,7.62,7.84v14.65H444V150c0-3.22-.72-4.32-4.15-4.32-4.66,0-5.3,2.2-5.3,6.18v12.24h-5.33V132.32h5.33Z"/><path class="cls-5" d="M470.52,161.28h-.12c-1.06,3-4.32,3.05-6.9,3.05-5,0-8.3-1.06-8.3-7.07,0-5.34,2.8-6.82,8.3-6.82,2.71,0,5.38,0,6.65,2.54h.16V150.1c0-3.6-.29-4.87-4.74-4.87-2.32,0-4.19.22-4.19,3.09H456c0-6.47,4.45-6.73,9.53-6.73,7.12,0,10.08,1.1,10.08,8.56v13.93h-5.34Zm-10-4c0,3.13,1.27,3.43,4.86,3.43,2.84,0,4.91-.26,4.91-3.43s-2.28-3.18-4.91-3.18S460.54,154.08,460.54,157.26Z"/></g></g></svg>