<svg xmlns="http://www.w3.org/2000/svg" viewBox="0 0 268.73 49.24"><defs><style>.cls-1{fill:#820053;}</style></defs><title>IPB-GeralAsset 1</title><g id="Layer_2" data-name="Layer 2"><g id="Layer_1-2" data-name="Layer 1"><path class="cls-1" d="M56.12,38.43C52.34,42.84,46.69,45.69,40,47A29.61,29.61,0,0,1,38,43.91c6.82-1.14,12.23-3.71,15.93-8C54.78,36.69,55.36,37.64,56.12,38.43Z"/><path class="cls-1" d="M53.36,35.09c-3.66,4.28-9,6.82-16,7.86-.57-1-1.22-1.9-1.75-2.94,6.92-.73,12.16-3.14,15.66-7.29C52.07,33.44,52.66,34.32,53.36,35.09Z"/><path class="cls-1" d="M50.75,31.93c-2.78,3.39-7.43,6-13,6.89a9.88,9.88,0,0,1-2.55.29c-.37-.12-.67-1-.9-1.36a7.76,7.76,0,0,1-.85-1.41c7-.32,12.11-2.59,15.37-6.67A28.33,28.33,0,0,1,50.75,31.93Z"/><path class="cls-1" d="M2.94,25.94c1.7,6,5.41,9.92,10.06,12.94-.93.77-2.06,1.34-3.05,2C5.31,37.71,1.58,33.61,0,27.35,1,26.91,1.92,26.37,2.94,25.94Z"/><path class="cls-1" d="M17,36.34c-.9.71-2,1.27-2.94,1.92C9.35,35.33,5.51,31.53,4,25.43c.92-.49,1.91-.92,2.82-1.42C8.34,30,12.23,33.6,17,36.34Z"/><path class="cls-1" d="M20.85,33.91c-.88.67-1.92,1.2-2.82,1.86C13.2,33.1,9.17,29.63,7.74,23.56c.88-.47,1.87-.84,2.72-1.35C11.86,28.17,15.87,31.53,20.85,33.91Z"/><path class="cls-1" d="M53.52,22.49c-.86,0-1.77.3-2.48.28-.29-5.12-3.17-7.95-5.94-10.4.56,0,1.31-.29,1.93-.23s1.8,1.4,2.31,1.93A15.07,15.07,0,0,1,53.52,22.49Z"/><path class="cls-1" d="M56.69,22c-.76.15-1.56.25-2.38.34-.79-4.67-3.53-7.69-6.27-10.23.53,0,1.23-.29,1.81-.23.76.09,1.75,1.45,2.26,2A18.42,18.42,0,0,1,56.69,22Z"/><path class="cls-1" d="M59.68,21.58c-.79.06-1.44.26-2.26.29-1.16-4.36-3.85-7.5-6.61-10.06.51,0,1.3-.33,1.86-.23.3.06.9.68,1.25,1A22.61,22.61,0,0,1,59.68,21.58Z"/><path class="cls-1" d="M50.07,22.94c-.92.08-1.75.24-2.65.34.61-4.89-2.2-8.32-5.09-10.46A20.39,20.39,0,0,0,32,9a20.52,20.52,0,0,0-11.81,2c-3.11,1.7-6.32,4.59-6,9.49a11.34,11.34,0,0,0,4.69,8,21.25,21.25,0,0,0,8.76,3.9C35.3,34,43,31.51,46.18,26.5A16.94,16.94,0,0,1,48,28.76a16.46,16.46,0,0,1-8.76,5.77,27.49,27.49,0,0,1-12.89.28,22.66,22.66,0,0,1-9.83-4.69c-2.6-2.22-4.94-5-5.2-9.27-.28-4.62,2.47-7.77,5.31-9.78A20.61,20.61,0,0,1,28.32,7.45a26,26,0,0,1,14.63,4C46.69,13.77,49.84,17.05,50.07,22.94Z"/><path class="cls-1" d="M22,8c-4.42,1.41-8.06,3.59-10.18,7.29-.73-.32-1.32-.78-2-1.13C11.88,10.85,16,8.33,20,7.06,20.53,6.89,21.42,8,22,8Z"/><path class="cls-1" d="M19.5,6.72c-4.3,1.48-7.9,3.66-10.35,7-.67-.33-1.23-.76-1.91-1.08A22.64,22.64,0,0,1,17.75,5.82C18.34,6.11,18.9,6.44,19.5,6.72Z"/><path class="cls-1" d="M40.81,8.19c0,.5-.13.89-.18,1.36a28.82,28.82,0,0,0-13.5-2.43c.19-.42.32-.89.51-1.3A31.39,31.39,0,0,1,40.81,8.19Z"/><path class="cls-1" d="M17.13,5.59A24.83,24.83,0,0,0,6.56,12.26c-.53-.44-1.28-.64-1.76-1.13A29.1,29.1,0,0,1,15.2,4.74C15.73,4.56,16.64,5.32,17.13,5.59Z"/><path class="cls-1" d="M28.32,4.18A36.66,36.66,0,0,1,41,6.5a9.83,9.83,0,0,1-.17,1.29,32.11,32.11,0,0,0-13-2.37A3.38,3.38,0,0,1,28.32,4.18Z"/><path class="cls-1" d="M28.82,2.71a40.4,40.4,0,0,1,12.44,2.2c0,.43-.12.78-.17,1.19A37.39,37.39,0,0,0,28.37,3.84,6.82,6.82,0,0,1,28.82,2.71Z"/><path class="cls-1" d="M127.19,35.66H125V26.57a26,26,0,0,1,2.85-.17c2.85,0,4.78,1.31,4.78,4.11C132.65,33.81,130.5,35.66,127.19,35.66Zm.65-7.57c-.43,0-.76,0-.76,0v5.71h.53c1.8,0,2.94-1,2.94-3.17A2.41,2.41,0,0,0,127.84,28.09Z"/><path class="cls-1" d="M134.11,35.66V26.49H139v1.72h-2.87v2h2.55v1.65h-2.55v2.1h3.09v1.72Z"/><path class="cls-1" d="M145.92,35.66h-2.24V26.57a22.87,22.87,0,0,1,2.58-.17c2.22,0,3.25.73,3.25,2.12a2.17,2.17,0,0,1-1.7,2.08v0c1.4.15,2.34.91,2.34,2.17C150.15,34.67,148.63,35.66,145.92,35.66Zm.2-7.75a3.33,3.33,0,0,0-.47,0v2.3c1,0,1.79-.28,1.79-1.27C147.44,28.2,146.94,27.91,146.12,27.91Zm.07,3.71h-.54V34h.9c.92,0,1.53-.41,1.53-1.19S147.43,31.62,146.19,31.62Z"/><path class="cls-1" d="M156.27,35.88,154.12,32a3.57,3.57,0,0,1-.56,0h-.14v3.64h-2V26.59a19.8,19.8,0,0,1,2.48-.19c2.11,0,3.34.81,3.34,2.53a2.71,2.71,0,0,1-1.4,2.34l2.27,3.85Zm-2.39-8a3.44,3.44,0,0,0-.46,0v2.79h.13a1.57,1.57,0,0,0,1.78-1.57C155.33,28.21,154.67,27.89,153.88,27.89Z"/><path class="cls-1" d="M164.55,35.91l-.78-2.8h-2.55l-.7,2.55h-2.06l3-9.17h2.09l2.92,8.92Zm-2-7.47h0l-.93,3.35h1.86Z"/><path class="cls-1" d="M173.84,28.61a4.55,4.55,0,0,0-2.1-.5A2.6,2.6,0,0,0,169,31c0,2,.84,3,2.7,3a4.73,4.73,0,0,0,.77-.08V31h2v4.31a10.07,10.07,0,0,1-3.41.52c-2.5,0-4.23-1.78-4.23-4.63a4.65,4.65,0,0,1,4.91-4.9,6.28,6.28,0,0,1,2.74.56Z"/><path class="cls-1" d="M181.41,35.91l-.78-2.8h-2.55l-.7,2.55h-2.06l3-9.17h2.09l2.92,8.92Zm-2-7.47h0l-.93,3.35h1.86Z"/><path class="cls-1" d="M189.93,35.82,186.17,30h0l.06,5.62h-1.84V26.49H186l3.64,5.57h0l-.07-5.57h1.84v9Z"/><path class="cls-1" d="M197,35.84c-2.38,0-4.14-1.6-4.14-4.61,0-3.17,2-4.92,4.63-4.92a5.68,5.68,0,0,1,2.63.58l-.75,1.72a3.71,3.71,0,0,0-1.85-.49A2.57,2.57,0,0,0,195,31c0,2.1.82,3,2.54,3a4.18,4.18,0,0,0,1.93-.54l.69,1.62A6.1,6.1,0,0,1,197,35.84Zm-.88,3.21-.29-.76s.83-.27.83-.75a.33.33,0,0,0-.36-.38,1,1,0,0,0-.31.06l-.28-.76a2.28,2.28,0,0,1,1-.26,1,1,0,0,1,1.15,1.12C197.94,38.67,196.16,39.05,196.16,39.05Z"/><path class="cls-1" d="M206.71,35.91l-.77-2.8h-2.56l-.7,2.55h-2.05l3-9.17h2.09l2.92,8.92Zm-2-7.47h0l-.93,3.35h1.85Z"/><path class="cls-1" d="M125,23V13.81h2.06V23Z"/><path class="cls-1" d="M134.58,23.14l-3.76-5.78h0l.06,5.62H129V13.81h1.64l3.64,5.57h0l-.07-5.57h1.84v9Z"/><path class="cls-1" d="M140.37,23.16a6.27,6.27,0,0,1-2.85-.63l.65-1.72a4.58,4.58,0,0,0,2,.57c.84,0,1.34-.29,1.34-.92s-.38-.74-1-1l-1.15-.5a2.53,2.53,0,0,1-1.78-2.53,2.93,2.93,0,0,1,3.21-2.77,5.7,5.7,0,0,1,2.46.55l-.67,1.67a3.93,3.93,0,0,0-1.69-.48c-.74,0-1.32.27-1.32.89s.41.73.91.95l1.19.5a2.57,2.57,0,0,1,1.9,2.36A3,3,0,0,1,140.37,23.16Z"/><path class="cls-1" d="M148.34,15.53V23h-2.06V15.53h-2.46V13.81h7v1.72Z"/><path class="cls-1" d="M151.81,23V13.81h2.05V23Z"/><path class="cls-1" d="M159.39,15.53V23h-2.06V15.53h-2.46V13.81h7v1.72Z"/><path class="cls-1" d="M166.54,23.19c-2.45,0-3.71-1.3-3.71-4V13.81h2.07v5.28c0,1.54.53,2.12,1.64,2.12s1.63-.76,1.63-2V13.81h2V19.2C170.16,21.68,168.81,23.19,166.54,23.19Z"/><path class="cls-1" d="M175.66,15.53V23H173.6V15.53h-2.46V13.81h7v1.72Z"/><path class="cls-1" d="M182.57,23.16c-3.26,0-4.37-2.45-4.37-4.78s1.08-4.75,4.37-4.75,4.35,2.39,4.35,4.75S185.81,23.16,182.57,23.16Zm0-7.79c-1.53,0-2.23,1.14-2.23,3s.72,3.06,2.23,3.06,2.22-1.17,2.22-3.06S184.1,15.37,182.57,15.37Z"/><path class="cls-1" d="M193.57,19.64h-.14V23h-2V13.9a19.17,19.17,0,0,1,2.48-.18c2.15,0,3.37.9,3.37,2.57A3.43,3.43,0,0,1,193.57,19.64Zm.35-4.41a4.27,4.27,0,0,0-.49,0v2.88h.14a1.6,1.6,0,0,0,1.75-1.63C195.32,15.56,194.74,15.23,193.92,15.23Z"/><path class="cls-1" d="M202.37,23.16c-3.26,0-4.37-2.45-4.37-4.78s1.08-4.75,4.37-4.75,4.35,2.39,4.35,4.75S205.61,23.16,202.37,23.16Zm0-7.79c-1.53,0-2.23,1.14-2.23,3s.72,3.06,2.23,3.06,2.22-1.17,2.22-3.06S203.9,15.37,202.37,15.37Z"/><path class="cls-1" d="M208.18,23V13.81h2v7.45h3.2V23Z"/><path class="cls-1" d="M214.47,23V13.81h2.05V23Z"/><path class="cls-1" d="M222,15.53V23h-2V15.53h-2.47V13.81h7v1.72Z"/><path class="cls-1" d="M225.51,23V13.81h4.89v1.72h-2.86v2h2.54v1.65h-2.54v2.1h3.09V23Zm1.66-9.71-.67-1,2.91-2,.85,1.31Z"/><path class="cls-1" d="M235.53,23.16c-2.38,0-4.14-1.6-4.14-4.61,0-3.17,2-4.92,4.62-4.92a5.75,5.75,0,0,1,2.64.58l-.75,1.72a3.62,3.62,0,0,0-1.86-.49,2.57,2.57,0,0,0-2.52,2.88c0,2.1.82,3,2.54,3a4.18,4.18,0,0,0,1.93-.54l.69,1.62A6.12,6.12,0,0,1,235.53,23.16Z"/><path class="cls-1" d="M245.39,23.14l-3.76-5.78h0l.06,5.62h-1.84V13.81h1.65l3.63,5.57h0l-.08-5.57h1.84v9Z"/><path class="cls-1" d="M248.84,23V13.81h2.06V23Z"/><path class="cls-1" d="M256.5,23.16c-2.38,0-4.14-1.6-4.14-4.61,0-3.17,2-4.92,4.62-4.92a5.75,5.75,0,0,1,2.64.58l-.75,1.72a3.62,3.62,0,0,0-1.86-.49,2.57,2.57,0,0,0-2.52,2.88c0,2.1.82,3,2.54,3a4.18,4.18,0,0,0,1.93-.54l.69,1.62A6.12,6.12,0,0,1,256.5,23.16Z"/><path class="cls-1" d="M264.38,23.16c-3.26,0-4.37-2.45-4.37-4.78s1.08-4.75,4.37-4.75,4.35,2.39,4.35,4.75S267.62,23.16,264.38,23.16Zm0-7.79c-1.52,0-2.22,1.14-2.22,3s.71,3.06,2.22,3.06,2.22-1.17,2.22-3.06S265.92,15.37,264.38,15.37Z"/><path class="cls-1" d="M117.16,19.65a11.78,11.78,0,0,1-.27,10.43,11.47,11.47,0,0,1-7.11,5.76A11.82,11.82,0,0,1,99.62,34,11.27,11.27,0,0,1,95,25.81a61.4,61.4,0,0,1,0-6.38V.13c0-.06,0-.12,0-.13h5.12V14.84a14.45,14.45,0,0,1,4.63-1.76,11.77,11.77,0,0,1,12.46,6.57ZM113,25.23a6.48,6.48,0,0,0-1.84-5.17,6.53,6.53,0,0,0-10.7,2.33A6.48,6.48,0,1,0,113,25.23Z"/><path class="cls-1" d="M91.71,17.13a12,12,0,0,1,2.2,10.8,11.61,11.61,0,0,1-6.56,7.41,12.09,12.09,0,0,1-6,.86,11.91,11.91,0,0,1-5.13-1.85V49.24H71.07V25.76a14.58,14.58,0,0,1,.72-5.16,11.65,11.65,0,0,1,19.92-3.47ZM87.35,29.18a6.4,6.4,0,0,0,1.84-5.08,6.66,6.66,0,0,0-1.84-4A6.4,6.4,0,0,0,82,18.21a6,6,0,0,0-3.1,1.17,6.24,6.24,0,0,0-2.7,5.26,6.49,6.49,0,0,0,3.82,5.89A6.58,6.58,0,0,0,87.35,29.18Z"/><path class="cls-1" d="M70,13.82V36.2c-.19.06-.37-.14-.49-.23a11.46,11.46,0,0,1-4.68-8.41c-.28-4.48.21-8.94,0-13.6,0-.07,0-.13,0-.14Z"/><path class="cls-1" d="M70,7.53v5.21H64.86V7.66c0-.06,0-.12,0-.13Z"/></g></g></svg>