<svg xmlns:xlink="http://www.w3.org/1999/xlink" xmlns="http://www.w3.org/2000/svg" class="vtree" width="960" height="800"><style>
.vtree-node text { font: 14px sans-serif; }
.vtree-link { fill: none; stroke: #888; stroke-width: 2px; }
.vtree-table { stroke-width: 2px; stroke: steelblue; }
path.vtree-table { fill: white; }
g.vtree-node rect { fill: white; stroke: black; stroke-width: 1px; }
g.vtree-node rect.number-text { fill: #d8f0ed; }
g.vtree-node rect.string-text { fill: #e7f0db; }
g.vtree-node rect.boolean-text { fill: #e1d8f0; }
g.vtree-node rect.null-text { fill: #888; }
</style><g class="vtree-root" transform="translate(-25.36825791022784,-183.21480212912684)scale(1.055606328618317)"><g class="vtree-node" transform="translate(480,263)"><g class="vtree-node" transform="translate(-8,0)"><path class="vtree-link" d="M8,4C8,47 8,47 8,90"/><g class="vtree-node" transform="translate(-56,58)"><path class="vtree-link" d="M64,32C64,79 433,79 433,126"/><path class="vtree-link" d="M64,32C64,79 310,79 310,126"/><path class="vtree-link" d="M64,32C64,79 187,79 187,126"/><path class="vtree-link" d="M64,32C64,79 64,79 64,126"/><path class="vtree-link" d="M64,32C64,79 -59,79 -59,126"/><path class="vtree-link" d="M64,32C64,79 -182,79 -182,126"/><path class="vtree-link" d="M64,32C64,79 -305,79 -305,126"/><g class="vtree-node" transform="translate(-362,94)"><path class="vtree-link" d="M57,32C57,75 89,75 89,118"/><path class="vtree-link" d="M57,32C57,75 38,75 38,118"/><g class="vtree-node" transform="translate(11,94)"><g transform="translate(19,20)"><g transform="translate(0,0)"><rect class="string-text" x="0" y="0" width="8" height="8"/><text x="4" y="4"> </text></g><g transform="translate(8,0)"><rect class="string-text" x="0" y="0" width="8" height="8"/><text x="4" y="4"> </text></g></g><g><text x="27" y="16" text-anchor="middle">PreCut</text></g></g><g class="vtree-node" transform="translate(74,94)"><g transform="translate(7,20)"><g transform="translate(0,0)"><rect class="string-text" x="0" y="0" width="8" height="8"/><text x="4" y="4"> </text></g><g transform="translate(8,0)"><rect class="string-text" x="0" y="0" width="8" height="8"/><text x="4" y="4"> </text></g></g><g><text x="15" y="16" text-anchor="middle">NA</text></g></g><g transform="translate(0,20)"><g transform="translate(0,0)"><rect class="string-text" x="0" y="0" width="38" height="24"/><text x="4" y="20">label</text></g><g transform="translate(38,0)"><rect class="string-text" x="0" y="0" width="75" height="24"/><text x="4" y="20">FoodClass</text></g></g><g><text x="57" y="16" text-anchor="middle">Berries</text></g></g><g class="vtree-node" transform="translate(-239,94)"><path class="vtree-link" d="M57,32C57,75 89,75 89,118"/><path class="vtree-link" d="M57,32C57,75 38,75 38,118"/><g class="vtree-node" transform="translate(11,94)"><g transform="translate(19,20)"><g transform="translate(0,0)"><rect class="string-text" x="0" y="0" width="8" height="8"/><text x="4" y="4"> </text></g><g transform="translate(8,0)"><rect class="string-text" x="0" y="0" width="8" height="8"/><text x="4" y="4"> </text></g></g><g><text x="27" y="16" text-anchor="middle">PreCut</text></g></g><g class="vtree-node" transform="translate(74,94)"><g transform="translate(7,20)"><g transform="translate(0,0)"><rect class="string-text" x="0" y="0" width="8" height="8"/><text x="4" y="4"> </text></g><g transform="translate(8,0)"><rect class="string-text" x="0" y="0" width="8" height="8"/><text x="4" y="4"> </text></g></g><g><text x="15" y="16" text-anchor="middle">NA</text></g></g><g transform="translate(0,20)"><g transform="translate(0,0)"><rect class="string-text" x="0" y="0" width="38" height="24"/><text x="4" y="20">label</text></g><g transform="translate(38,0)"><rect class="string-text" x="0" y="0" width="75" height="24"/><text x="4" y="20">FoodClass</text></g></g><g><text x="57" y="16" text-anchor="middle">Dried</text></g></g><g class="vtree-node" transform="translate(-116,94)"><path class="vtree-link" d="M57,32C57,75 89,75 89,118"/><path class="vtree-link" d="M57,32C57,75 38,75 38,118"/><g class="vtree-node" transform="translate(11,94)"><g transform="translate(19,20)"><g transform="translate(0,0)"><rect class="string-text" x="0" y="0" width="8" height="8"/><text x="4" y="4"> </text></g><g transform="translate(8,0)"><rect class="string-text" x="0" y="0" width="8" height="8"/><text x="4" y="4"> </text></g></g><g><text x="27" y="16" text-anchor="middle">PreCut</text></g></g><g class="vtree-node" transform="translate(74,94)"><g transform="translate(7,20)"><g transform="translate(0,0)"><rect class="string-text" x="0" y="0" width="8" height="8"/><text x="4" y="4"> </text></g><g transform="translate(8,0)"><rect class="string-text" x="0" y="0" width="8" height="8"/><text x="4" y="4"> </text></g></g><g><text x="15" y="16" text-anchor="middle">NA</text></g></g><g transform="translate(0,20)"><g transform="translate(0,0)"><rect class="string-text" x="0" y="0" width="38" height="24"/><text x="4" y="20">label</text></g><g transform="translate(38,0)"><rect class="string-text" x="0" y="0" width="75" height="24"/><text x="4" y="20">FoodClass</text></g></g><g><text x="57" y="16" text-anchor="middle">Citrus</text></g></g><g class="vtree-node" transform="translate(7,94)"><path class="vtree-link" d="M57,32C57,75 89,75 89,118"/><path class="vtree-link" d="M57,32C57,75 38,75 38,118"/><g class="vtree-node" transform="translate(11,94)"><g transform="translate(19,20)"><g transform="translate(0,0)"><rect class="string-text" x="0" y="0" width="8" height="8"/><text x="4" y="4"> </text></g><g transform="translate(8,0)"><rect class="string-text" x="0" y="0" width="8" height="8"/><text x="4" y="4"> </text></g></g><g><text x="27" y="16" text-anchor="middle">PreCut</text></g></g><g class="vtree-node" transform="translate(74,94)"><g transform="translate(7,20)"><g transform="translate(0,0)"><rect class="string-text" x="0" y="0" width="8" height="8"/><text x="4" y="4"> </text></g><g transform="translate(8,0)"><rect class="string-text" x="0" y="0" width="8" height="8"/><text x="4" y="4"> </text></g></g><g><text x="15" y="16" text-anchor="middle">NA</text></g></g><g transform="translate(0,20)"><g transform="translate(0,0)"><rect class="string-text" x="0" y="0" width="38" height="24"/><text x="4" y="20">label</text></g><g transform="translate(38,0)"><rect class="string-text" x="0" y="0" width="75" height="24"/><text x="4" y="20">FoodClass</text></g></g><g><text x="57" y="16" text-anchor="middle">Drupes</text></g></g><g class="vtree-node" transform="translate(130,94)"><path class="vtree-link" d="M57,32C57,75 89,75 89,118"/><path class="vtree-link" d="M57,32C57,75 38,75 38,118"/><g class="vtree-node" transform="translate(11,94)"><g transform="translate(19,20)"><g transform="translate(0,0)"><rect class="string-text" x="0" y="0" width="8" height="8"/><text x="4" y="4"> </text></g><g transform="translate(8,0)"><rect class="string-text" x="0" y="0" width="8" height="8"/><text x="4" y="4"> </text></g></g><g><text x="27" y="16" text-anchor="middle">PreCut</text></g></g><g class="vtree-node" transform="translate(74,94)"><g transform="translate(7,20)"><g transform="translate(0,0)"><rect class="string-text" x="0" y="0" width="8" height="8"/><text x="4" y="4"> </text></g><g transform="translate(8,0)"><rect class="string-text" x="0" y="0" width="8" height="8"/><text x="4" y="4"> </text></g></g><g><text x="15" y="16" text-anchor="middle">NA</text></g></g><g transform="translate(0,20)"><g transform="translate(0,0)"><rect class="string-text" x="0" y="0" width="38" height="24"/><text x="4" y="20">label</text></g><g transform="translate(38,0)"><rect class="string-text" x="0" y="0" width="75" height="24"/><text x="4" y="20">FoodClass</text></g></g><g><text x="57" y="16" text-anchor="middle">Pome</text></g></g><g class="vtree-node" transform="translate(253,94)"><path class="vtree-link" d="M57,32C57,75 89,75 89,118"/><path class="vtree-link" d="M57,32C57,75 38,75 38,118"/><g class="vtree-node" transform="translate(11,94)"><g transform="translate(19,20)"><g transform="translate(0,0)"><rect class="string-text" x="0" y="0" width="8" height="8"/><text x="4" y="4"> </text></g><g transform="translate(8,0)"><rect class="string-text" x="0" y="0" width="8" height="8"/><text x="4" y="4"> </text></g></g><g><text x="27" y="16" text-anchor="middle">PreCut</text></g></g><g class="vtree-node" transform="translate(74,94)"><g transform="translate(7,20)"><g transform="translate(0,0)"><rect class="string-text" x="0" y="0" width="8" height="8"/><text x="4" y="4"> </text></g><g transform="translate(8,0)"><rect class="string-text" x="0" y="0" width="8" height="8"/><text x="4" y="4"> </text></g></g><g><text x="15" y="16" text-anchor="middle">NA</text></g></g><g transform="translate(0,20)"><g transform="translate(0,0)"><rect class="string-text" x="0" y="0" width="38" height="24"/><text x="4" y="20">label</text></g><g transform="translate(38,0)"><rect class="string-text" x="0" y="0" width="75" height="24"/><text x="4" y="20">FoodClass</text></g></g><g><text x="57" y="16" text-anchor="middle">ProcessedF</text></g></g><g class="vtree-node" transform="translate(376,94)"><path class="vtree-link" d="M57,32C57,75 89,75 89,118"/><path class="vtree-link" d="M57,32C57,75 38,75 38,118"/><g class="vtree-node" transform="translate(11,94)"><g transform="translate(19,20)"><g transform="translate(0,0)"><rect class="string-text" x="0" y="0" width="8" height="8"/><text x="4" y="4"> </text></g><g transform="translate(8,0)"><rect class="string-text" x="0" y="0" width="8" height="8"/><text x="4" y="4"> </text></g></g><g><text x="27" y="16" text-anchor="middle">PreCut</text></g></g><g class="vtree-node" transform="translate(74,94)"><g transform="translate(7,20)"><g transform="translate(0,0)"><rect class="string-text" x="0" y="0" width="8" height="8"/><text x="4" y="4"> </text></g><g transform="translate(8,0)"><rect class="string-text" x="0" y="0" width="8" height="8"/><text x="4" y="4"> </text></g></g><g><text x="15" y="16" text-anchor="middle">NA</text></g></g><g transform="translate(0,20)"><g transform="translate(0,0)"><rect class="string-text" x="0" y="0" width="38" height="24"/><text x="4" y="20">label</text></g><g transform="translate(38,0)"><rect class="string-text" x="0" y="0" width="75" height="24"/><text x="4" y="20">FoodClass</text></g></g><g><text x="57" y="16" text-anchor="middle">UndefinedF</text></g></g><g transform="translate(0,20)"><g transform="translate(0,0)"><rect class="string-text" x="0" y="0" width="38" height="24"/><text x="4" y="20">label</text></g><g transform="translate(38,0)"><rect class="string-text" x="0" y="0" width="90" height="24"/><text x="4" y="20">SubCategory</text></g></g><g><text x="64" y="16" text-anchor="middle">Fruits</text></g></g><g transform="translate(0,0)"><rect class="string-text" x="0" y="0" width="8" height="8"/><text x="4" y="4"> </text></g><g transform="translate(8,0)"><rect class="string-text" x="0" y="0" width="8" height="8"/><text x="4" y="4"> </text></g></g></g></g></svg>