<svg xmlns:xlink="http://www.w3.org/1999/xlink" xmlns="http://www.w3.org/2000/svg" class="vtree" width="960" height="800"><style>
.vtree-node text { font: 14px sans-serif; }
.vtree-link { fill: none; stroke: #888; stroke-width: 2px; }
.vtree-table { stroke-width: 2px; stroke: steelblue; }
path.vtree-table { fill: white; }
g.vtree-node rect { fill: white; stroke: black; stroke-width: 1px; }
g.vtree-node rect.number-text { fill: #d8f0ed; }
g.vtree-node rect.string-text { fill: #e7f0db; }
g.vtree-node rect.boolean-text { fill: #e1d8f0; }
g.vtree-node rect.null-text { fill: #888; }
</style><g class="vtree-root" transform="translate(-156.0959093758595,-181.35050037489657)scale(1.2125732532083204)"><g class="vtree-node" transform="translate(480,263)"><g class="vtree-node" transform="translate(-8,0)"><path class="vtree-link" d="M8,4C8,47 8,47 8,90"/><g class="vtree-node" transform="translate(-56,58)"><path class="vtree-link" d="M64,32C64,79 270,79 270,126"/><path class="vtree-link" d="M64,32C64,79 147,79 147,126"/><path class="vtree-link" d="M64,32C64,79 24,79 24,126"/><path class="vtree-link" d="M64,32C64,75 -92,75 -92,118"/><path class="vtree-link" d="M64,32C64,75 -175,75 -175,118"/><g class="vtree-node" transform="translate(-198,94)"><g transform="translate(15,20)"><g transform="translate(0,0)"><rect class="string-text" x="0" y="0" width="8" height="8"/><text x="4" y="4"> </text></g><g transform="translate(8,0)"><rect class="string-text" x="0" y="0" width="8" height="8"/><text x="4" y="4"> </text></g></g><g><text x="23" y="16" text-anchor="middle">Bread</text></g></g><g class="vtree-node" transform="translate(-142,94)"><g transform="translate(42,20)"><g transform="translate(0,0)"><rect class="string-text" x="0" y="0" width="8" height="8"/><text x="4" y="4"> </text></g><g transform="translate(8,0)"><rect class="string-text" x="0" y="0" width="8" height="8"/><text x="4" y="4"> </text></g></g><g><text x="50" y="16" text-anchor="middle">CakesPastries</text></g></g><g class="vtree-node" transform="translate(-33,94)"><path class="vtree-link" d="M57,32C57,75 91,75 91,118"/><path class="vtree-link" d="M57,32C57,75 38,75 38,118"/><g class="vtree-node" transform="translate(9,94)"><g transform="translate(21,20)"><g transform="translate(0,0)"><rect class="string-text" x="0" y="0" width="8" height="8"/><text x="4" y="4"> </text></g><g transform="translate(8,0)"><rect class="string-text" x="0" y="0" width="8" height="8"/><text x="4" y="4"> </text></g></g><g><text x="29" y="16" text-anchor="middle">Cooked</text></g></g><g class="vtree-node" transform="translate(76,94)"><g transform="translate(7,20)"><g transform="translate(0,0)"><rect class="string-text" x="0" y="0" width="8" height="8"/><text x="4" y="4"> </text></g><g transform="translate(8,0)"><rect class="string-text" x="0" y="0" width="8" height="8"/><text x="4" y="4"> </text></g></g><g><text x="15" y="16" text-anchor="middle">NA</text></g></g><g transform="translate(0,20)"><g transform="translate(0,0)"><rect class="string-text" x="0" y="0" width="38" height="24"/><text x="4" y="20">label</text></g><g transform="translate(38,0)"><rect class="string-text" x="0" y="0" width="75" height="24"/><text x="4" y="20">FoodClass</text></g></g><g><text x="57" y="16" text-anchor="middle">Cereals</text></g></g><g class="vtree-node" transform="translate(90,94)"><path class="vtree-link" d="M57,32C57,75 91,75 91,118"/><path class="vtree-link" d="M57,32C57,75 38,75 38,118"/><g class="vtree-node" transform="translate(9,94)"><g transform="translate(21,20)"><g transform="translate(0,0)"><rect class="string-text" x="0" y="0" width="8" height="8"/><text x="4" y="4"> </text></g><g transform="translate(8,0)"><rect class="string-text" x="0" y="0" width="8" height="8"/><text x="4" y="4"> </text></g></g><g><text x="29" y="16" text-anchor="middle">Cooked</text></g></g><g class="vtree-node" transform="translate(76,94)"><g transform="translate(7,20)"><g transform="translate(0,0)"><rect class="string-text" x="0" y="0" width="8" height="8"/><text x="4" y="4"> </text></g><g transform="translate(8,0)"><rect class="string-text" x="0" y="0" width="8" height="8"/><text x="4" y="4"> </text></g></g><g><text x="15" y="16" text-anchor="middle">NA</text></g></g><g transform="translate(0,20)"><g transform="translate(0,0)"><rect class="string-text" x="0" y="0" width="38" height="24"/><text x="4" y="20">label</text></g><g transform="translate(38,0)"><rect class="string-text" x="0" y="0" width="75" height="24"/><text x="4" y="20">FoodClass</text></g></g><g><text x="57" y="16" text-anchor="middle">Pasta</text></g></g><g class="vtree-node" transform="translate(213,94)"><path class="vtree-link" d="M57,32C57,75 91,75 91,118"/><path class="vtree-link" d="M57,32C57,75 38,75 38,118"/><g class="vtree-node" transform="translate(9,94)"><g transform="translate(21,20)"><g transform="translate(0,0)"><rect class="string-text" x="0" y="0" width="8" height="8"/><text x="4" y="4"> </text></g><g transform="translate(8,0)"><rect class="string-text" x="0" y="0" width="8" height="8"/><text x="4" y="4"> </text></g></g><g><text x="29" y="16" text-anchor="middle">Cooked</text></g></g><g class="vtree-node" transform="translate(76,94)"><g transform="translate(7,20)"><g transform="translate(0,0)"><rect class="string-text" x="0" y="0" width="8" height="8"/><text x="4" y="4"> </text></g><g transform="translate(8,0)"><rect class="string-text" x="0" y="0" width="8" height="8"/><text x="4" y="4"> </text></g></g><g><text x="15" y="16" text-anchor="middle">NA</text></g></g><g transform="translate(0,20)"><g transform="translate(0,0)"><rect class="string-text" x="0" y="0" width="38" height="24"/><text x="4" y="20">label</text></g><g transform="translate(38,0)"><rect class="string-text" x="0" y="0" width="75" height="24"/><text x="4" y="20">FoodClass</text></g></g><g><text x="57" y="16" text-anchor="middle">UndefinedG</text></g></g><g transform="translate(0,20)"><g transform="translate(0,0)"><rect class="string-text" x="0" y="0" width="38" height="24"/><text x="4" y="20">label</text></g><g transform="translate(38,0)"><rect class="string-text" x="0" y="0" width="90" height="24"/><text x="4" y="20">SubCategory</text></g></g><g><text x="64" y="16" text-anchor="middle">Grains</text></g></g><g transform="translate(0,0)"><rect class="string-text" x="0" y="0" width="8" height="8"/><text x="4" y="4"> </text></g><g transform="translate(8,0)"><rect class="string-text" x="0" y="0" width="8" height="8"/><text x="4" y="4"> </text></g></g></g></g></svg>