<?xml version="1.0" standalone="no"?>
<svg xmlns:xlink="http://www.w3.org/1999/xlink" xmlns="http://www.w3.org/2000/svg" class="vtree" width="960" height="800"><style>
.vtree-node text { font: 14px sans-serif; }
.vtree-link { fill: none; stroke: #888; stroke-width: 2px; }
.vtree-table { stroke-width: 2px; stroke: steelblue; }
path.vtree-table { fill: white; }
g.vtree-node rect { fill: white; stroke: black; stroke-width: 1px; }
g.vtree-node rect.number-text { fill: #d8f0ed; }
g.vtree-node rect.string-text { fill: #e7f0db; }
g.vtree-node rect.boolean-text { fill: #e1d8f0; }
g.vtree-node rect.null-text { fill: #888; }
</style><g class="vtree-root" transform="translate(-12.235606353694607,-179.81031916136556)scale(1.055606328618317)"><g class="vtree-node" transform="translate(480,310)"><g class="vtree-node" transform="translate(-8,0)"><path class="vtree-link" d="M8,4C8,47 8,47 8,90"/><g class="vtree-node" transform="translate(-56,58)"><path class="vtree-link" d="M64,32C64,75 218,75 218,118"/><path class="vtree-link" d="M64,32C64,75 151,75 151,118"/><path class="vtree-link" d="M64,32C64,75 66,75 66,118"/><path class="vtree-link" d="M64,32C64,75 -9,75 -9,118"/><path class="vtree-link" d="M64,32C64,75 -79,75 -79,118"/><g class="vtree-node" transform="translate(-115,94)"><g transform="translate(28,20)"><g transform="translate(0,0)"><rect class="string-text" x="0" y="0" width="8" height="8"/><text x="4" y="4"> </text></g><g transform="translate(8,0)"><rect class="string-text" x="0" y="0" width="8" height="8"/><text x="4" y="4"> </text></g></g><g><text x="36" y="16" text-anchor="middle">CoffeeTea</text></g></g><g class="vtree-node" transform="translate(-33,94)"><g transform="translate(16,20)"><g transform="translate(0,0)"><rect class="string-text" x="0" y="0" width="8" height="8"/><text x="4" y="4"> </text></g><g transform="translate(8,0)"><rect class="string-text" x="0" y="0" width="8" height="8"/><text x="4" y="4"> </text></g></g><g><text x="24" y="16" text-anchor="middle">Juices</text></g></g><g class="vtree-node" transform="translate(25,94)"><g transform="translate(33,20)"><g transform="translate(0,0)"><rect class="string-text" x="0" y="0" width="8" height="8"/><text x="4" y="4"> </text></g><g transform="translate(8,0)"><rect class="string-text" x="0" y="0" width="8" height="8"/><text x="4" y="4"> </text></g></g><g><text x="41" y="16" text-anchor="middle">UndefinedB</text></g></g><g class="vtree-node" transform="translate(117,94)"><g transform="translate(26,20)"><g transform="translate(0,0)"><rect class="string-text" x="0" y="0" width="8" height="8"/><text x="4" y="4"> </text></g><g transform="translate(8,0)"><rect class="string-text" x="0" y="0" width="8" height="8"/><text x="4" y="4"> </text></g></g><g><text x="34" y="16" text-anchor="middle">SoftDrink</text></g></g><g class="vtree-node" transform="translate(194,94)"><g transform="translate(16,20)"><g transform="translate(0,0)"><rect class="string-text" x="0" y="0" width="8" height="8"/><text x="4" y="4"> </text></g><g transform="translate(8,0)"><rect class="string-text" x="0" y="0" width="8" height="8"/><text x="4" y="4"> </text></g></g><g><text x="24" y="16" text-anchor="middle">Water</text></g></g><g transform="translate(0,20)"><g transform="translate(0,0)"><rect class="string-text" x="0" y="0" width="38" height="24"/><text x="4" y="20">label</text></g><g transform="translate(38,0)"><rect class="string-text" x="0" y="0" width="90" height="24"/><text x="4" y="20">SubCategory</text></g></g><g><text x="64" y="16" text-anchor="middle">Beverages</text></g></g><g transform="translate(0,0)"><rect class="string-text" x="0" y="0" width="8" height="8"/><text x="4" y="4"> </text></g><g transform="translate(8,0)"><rect class="string-text" x="0" y="0" width="8" height="8"/><text x="4" y="4"> </text></g></g></g></g></svg>