<svg xmlns:xlink="http://www.w3.org/1999/xlink" xmlns="http://www.w3.org/2000/svg" class="vtree" width="960" height="800"><style>
.vtree-node text { font: 14px sans-serif; }
.vtree-link { fill: none; stroke: #888; stroke-width: 2px; }
.vtree-table { stroke-width: 2px; stroke: steelblue; }
path.vtree-table { fill: white; }
g.vtree-node rect { fill: white; stroke: black; stroke-width: 1px; }
g.vtree-node rect.number-text { fill: #d8f0ed; }
g.vtree-node rect.string-text { fill: #e7f0db; }
g.vtree-node rect.boolean-text { fill: #e1d8f0; }
g.vtree-node rect.null-text { fill: #888; }
</style><g class="vtree-root" transform="translate(-30.235606353694607,-209.81031916136556)scale(1.055606328618317)"><g class="vtree-node" transform="translate(480,263)"><g class="vtree-node" transform="translate(-8,0)"><path class="vtree-link" d="M8,4C8,47 8,47 8,90"/><g class="vtree-node" transform="translate(-97,58)"><path class="vtree-link" d="M105,32C105,79 411,79 411,126"/><path class="vtree-link" d="M105,32C105,79 258,79 258,126"/><path class="vtree-link" d="M105,32C105,79 105,79 105,126"/><path class="vtree-link" d="M105,32C105,79 -48,79 -48,126"/><path class="vtree-link" d="M105,32C105,79 -201,79 -201,126"/><g class="vtree-node" transform="translate(-258,94)"><path class="vtree-link" d="M57,32C57,75 114,75 114,118"/><path class="vtree-link" d="M57,32C57,75 71,75 71,118"/><path class="vtree-link" d="M57,32C57,75 14,75 14,118"/><g class="vtree-node" transform="translate(-15,94)"><g transform="translate(21,20)"><g transform="translate(0,0)"><rect class="string-text" x="0" y="0" width="8" height="8"/><text x="4" y="4"> </text></g><g transform="translate(8,0)"><rect class="string-text" x="0" y="0" width="8" height="8"/><text x="4" y="4"> </text></g></g><g><text x="29" y="16" text-anchor="middle">Cooked</text></g></g><g class="vtree-node" transform="translate(52,94)"><g transform="translate(11,20)"><g transform="translate(0,0)"><rect class="string-text" x="0" y="0" width="8" height="8"/><text x="4" y="4"> </text></g><g transform="translate(8,0)"><rect class="string-text" x="0" y="0" width="8" height="8"/><text x="4" y="4"> </text></g></g><g><text x="19" y="16" text-anchor="middle">Raw</text></g></g><g class="vtree-node" transform="translate(99,94)"><g transform="translate(7,20)"><g transform="translate(0,0)"><rect class="string-text" x="0" y="0" width="8" height="8"/><text x="4" y="4"> </text></g><g transform="translate(8,0)"><rect class="string-text" x="0" y="0" width="8" height="8"/><text x="4" y="4"> </text></g></g><g><text x="15" y="16" text-anchor="middle">NA</text></g></g><g transform="translate(0,20)"><g transform="translate(0,0)"><rect class="string-text" x="0" y="0" width="38" height="24"/><text x="4" y="20">label</text></g><g transform="translate(38,0)"><rect class="string-text" x="0" y="0" width="75" height="24"/><text x="4" y="20">FoodClass</text></g></g><g><text x="57" y="16" text-anchor="middle">RTE</text></g></g><g class="vtree-node" transform="translate(-105,94)"><path class="vtree-link" d="M57,32C57,75 114,75 114,118"/><path class="vtree-link" d="M57,32C57,75 71,75 71,118"/><path class="vtree-link" d="M57,32C57,75 14,75 14,118"/><g class="vtree-node" transform="translate(-15,94)"><g transform="translate(21,20)"><g transform="translate(0,0)"><rect class="string-text" x="0" y="0" width="8" height="8"/><text x="4" y="4"> </text></g><g transform="translate(8,0)"><rect class="string-text" x="0" y="0" width="8" height="8"/><text x="4" y="4"> </text></g></g><g><text x="29" y="16" text-anchor="middle">Cooked</text></g></g><g class="vtree-node" transform="translate(52,94)"><g transform="translate(11,20)"><g transform="translate(0,0)"><rect class="string-text" x="0" y="0" width="8" height="8"/><text x="4" y="4"> </text></g><g transform="translate(8,0)"><rect class="string-text" x="0" y="0" width="8" height="8"/><text x="4" y="4"> </text></g></g><g><text x="19" y="16" text-anchor="middle">Raw</text></g></g><g class="vtree-node" transform="translate(99,94)"><g transform="translate(7,20)"><g transform="translate(0,0)"><rect class="string-text" x="0" y="0" width="8" height="8"/><text x="4" y="4"> </text></g><g transform="translate(8,0)"><rect class="string-text" x="0" y="0" width="8" height="8"/><text x="4" y="4"> </text></g></g><g><text x="15" y="16" text-anchor="middle">NA</text></g></g><g transform="translate(0,20)"><g transform="translate(0,0)"><rect class="string-text" x="0" y="0" width="38" height="24"/><text x="4" y="20">label</text></g><g transform="translate(38,0)"><rect class="string-text" x="0" y="0" width="75" height="24"/><text x="4" y="20">FoodClass</text></g></g><g><text x="57" y="16" text-anchor="middle">Dishes</text></g></g><g class="vtree-node" transform="translate(48,94)"><path class="vtree-link" d="M57,32C57,75 114,75 114,118"/><path class="vtree-link" d="M57,32C57,75 71,75 71,118"/><path class="vtree-link" d="M57,32C57,75 14,75 14,118"/><g class="vtree-node" transform="translate(-15,94)"><g transform="translate(21,20)"><g transform="translate(0,0)"><rect class="string-text" x="0" y="0" width="8" height="8"/><text x="4" y="4"> </text></g><g transform="translate(8,0)"><rect class="string-text" x="0" y="0" width="8" height="8"/><text x="4" y="4"> </text></g></g><g><text x="29" y="16" text-anchor="middle">Cooked</text></g></g><g class="vtree-node" transform="translate(52,94)"><g transform="translate(11,20)"><g transform="translate(0,0)"><rect class="string-text" x="0" y="0" width="8" height="8"/><text x="4" y="4"> </text></g><g transform="translate(8,0)"><rect class="string-text" x="0" y="0" width="8" height="8"/><text x="4" y="4"> </text></g></g><g><text x="19" y="16" text-anchor="middle">Raw</text></g></g><g class="vtree-node" transform="translate(99,94)"><g transform="translate(7,20)"><g transform="translate(0,0)"><rect class="string-text" x="0" y="0" width="8" height="8"/><text x="4" y="4"> </text></g><g transform="translate(8,0)"><rect class="string-text" x="0" y="0" width="8" height="8"/><text x="4" y="4"> </text></g></g><g><text x="15" y="16" text-anchor="middle">NA</text></g></g><g transform="translate(0,20)"><g transform="translate(0,0)"><rect class="string-text" x="0" y="0" width="38" height="24"/><text x="4" y="20">label</text></g><g transform="translate(38,0)"><rect class="string-text" x="0" y="0" width="75" height="24"/><text x="4" y="20">FoodClass</text></g></g><g><text x="57" y="16" text-anchor="middle">SandWich</text></g></g><g class="vtree-node" transform="translate(201,94)"><path class="vtree-link" d="M57,32C57,75 114,75 114,118"/><path class="vtree-link" d="M57,32C57,75 71,75 71,118"/><path class="vtree-link" d="M57,32C57,75 14,75 14,118"/><g class="vtree-node" transform="translate(-15,94)"><g transform="translate(21,20)"><g transform="translate(0,0)"><rect class="string-text" x="0" y="0" width="8" height="8"/><text x="4" y="4"> </text></g><g transform="translate(8,0)"><rect class="string-text" x="0" y="0" width="8" height="8"/><text x="4" y="4"> </text></g></g><g><text x="29" y="16" text-anchor="middle">Cooked</text></g></g><g class="vtree-node" transform="translate(52,94)"><g transform="translate(11,20)"><g transform="translate(0,0)"><rect class="string-text" x="0" y="0" width="8" height="8"/><text x="4" y="4"> </text></g><g transform="translate(8,0)"><rect class="string-text" x="0" y="0" width="8" height="8"/><text x="4" y="4"> </text></g></g><g><text x="19" y="16" text-anchor="middle">Raw</text></g></g><g class="vtree-node" transform="translate(99,94)"><g transform="translate(7,20)"><g transform="translate(0,0)"><rect class="string-text" x="0" y="0" width="8" height="8"/><text x="4" y="4"> </text></g><g transform="translate(8,0)"><rect class="string-text" x="0" y="0" width="8" height="8"/><text x="4" y="4"> </text></g></g><g><text x="15" y="16" text-anchor="middle">NA</text></g></g><g transform="translate(0,20)"><g transform="translate(0,0)"><rect class="string-text" x="0" y="0" width="38" height="24"/><text x="4" y="20">label</text></g><g transform="translate(38,0)"><rect class="string-text" x="0" y="0" width="75" height="24"/><text x="4" y="20">FoodClass</text></g></g><g><text x="57" y="16" text-anchor="middle">FastFood</text></g></g><g class="vtree-node" transform="translate(354,94)"><path class="vtree-link" d="M57,32C57,75 114,75 114,118"/><path class="vtree-link" d="M57,32C57,75 71,75 71,118"/><path class="vtree-link" d="M57,32C57,75 14,75 14,118"/><g class="vtree-node" transform="translate(-15,94)"><g transform="translate(21,20)"><g transform="translate(0,0)"><rect class="string-text" x="0" y="0" width="8" height="8"/><text x="4" y="4"> </text></g><g transform="translate(8,0)"><rect class="string-text" x="0" y="0" width="8" height="8"/><text x="4" y="4"> </text></g></g><g><text x="29" y="16" text-anchor="middle">Cooked</text></g></g><g class="vtree-node" transform="translate(52,94)"><g transform="translate(11,20)"><g transform="translate(0,0)"><rect class="string-text" x="0" y="0" width="8" height="8"/><text x="4" y="4"> </text></g><g transform="translate(8,0)"><rect class="string-text" x="0" y="0" width="8" height="8"/><text x="4" y="4"> </text></g></g><g><text x="19" y="16" text-anchor="middle">Raw</text></g></g><g class="vtree-node" transform="translate(99,94)"><g transform="translate(7,20)"><g transform="translate(0,0)"><rect class="string-text" x="0" y="0" width="8" height="8"/><text x="4" y="4"> </text></g><g transform="translate(8,0)"><rect class="string-text" x="0" y="0" width="8" height="8"/><text x="4" y="4"> </text></g></g><g><text x="15" y="16" text-anchor="middle">NA</text></g></g><g transform="translate(0,20)"><g transform="translate(0,0)"><rect class="string-text" x="0" y="0" width="38" height="24"/><text x="4" y="20">label</text></g><g transform="translate(38,0)"><rect class="string-text" x="0" y="0" width="75" height="24"/><text x="4" y="20">FoodClass</text></g></g><g><text x="57" y="16" text-anchor="middle">UndefinedC</text></g></g><g transform="translate(41,20)"><g transform="translate(0,0)"><rect class="string-text" x="0" y="0" width="38" height="24"/><text x="4" y="20">label</text></g><g transform="translate(38,0)"><rect class="string-text" x="0" y="0" width="90" height="24"/><text x="4" y="20">SubCategory</text></g></g><g><text x="105" y="16" text-anchor="middle">Multi-ingredient/composite foods</text></g></g><g transform="translate(0,0)"><rect class="string-text" x="0" y="0" width="8" height="8"/><text x="4" y="4"> </text></g><g transform="translate(8,0)"><rect class="string-text" x="0" y="0" width="8" height="8"/><text x="4" y="4"> </text></g></g></g></g></svg>