<svg xmlns:xlink="http://www.w3.org/1999/xlink" xmlns="http://www.w3.org/2000/svg" class="vtree" width="1500" height="800"><style>
.vtree-node text { font: 14px sans-serif; }
.vtree-link { fill: none; stroke: #888; stroke-width: 2px; }
.vtree-table { stroke-width: 2px; stroke: steelblue; }
path.vtree-table { fill: white; }
g.vtree-node rect { fill: white; stroke: black; stroke-width: 1px; }
g.vtree-node rect.number-text { fill: #d8f0ed; }
g.vtree-node rect.string-text { fill: #e7f0db; }
g.vtree-node rect.boolean-text { fill: #e1d8f0; }
g.vtree-node rect.null-text { fill: #888; }
</style><g class="vtree-root" transform="translate(160.63174208977216,-169.34425156583075)scale(1.055606328618317)"><g class="vtree-node" transform="translate(480,263)"><g class="vtree-node" transform="translate(-8,0)"><path class="vtree-link" d="M8,4C8,47 8,47 8,90"/><g class="vtree-node" transform="translate(-56,58)"><path class="vtree-link" d="M64,32C64,79 531,79 531,126"/><path class="vtree-link" d="M64,32C64,79 287,79 287,126"/><path class="vtree-link" d="M64,32C64,79 43,79 43,126"/><path class="vtree-link" d="M64,32C64,75 -116,75 -116,118"/><path class="vtree-link" d="M64,32C64,75 -177,75 -177,118"/><path class="vtree-link" d="M64,32C64,79 -323,79 -323,126"/><path class="vtree-link" d="M64,32C64,75 -485,75 -485,118"/><g class="vtree-node" transform="translate(-520,94)"><g transform="translate(27,20)"><g transform="translate(0,0)"><rect class="string-text" x="0" y="0" width="8" height="8"/><text x="4" y="4"> </text></g><g transform="translate(8,0)"><rect class="string-text" x="0" y="0" width="8" height="8"/><text x="4" y="4"> </text></g></g><g><text x="35" y="16" text-anchor="middle">DrySeeds</text></g></g><g class="vtree-node" transform="translate(-380,94)"><path class="vtree-link" d="M57,32C57,75 160,75 160,118"/><path class="vtree-link" d="M57,32C57,75 97,75 97,118"/><path class="vtree-link" d="M57,32C57,75 28,75 28,118"/><path class="vtree-link" d="M57,32C57,75 -31,75 -31,118"/><g class="vtree-node" transform="translate(-60,94)"><g transform="translate(21,20)"><g transform="translate(0,0)"><rect class="string-text" x="0" y="0" width="8" height="8"/><text x="4" y="4"> </text></g><g transform="translate(8,0)"><rect class="string-text" x="0" y="0" width="8" height="8"/><text x="4" y="4"> </text></g></g><g><text x="29" y="16" text-anchor="middle">Cooked</text></g></g><g class="vtree-node" transform="translate(7,94)"><g transform="translate(13,20)"><g transform="translate(0,0)"><rect class="string-text" x="0" y="0" width="8" height="8"/><text x="4" y="4"> </text></g><g transform="translate(8,0)"><rect class="string-text" x="0" y="0" width="8" height="8"/><text x="4" y="4"> </text></g></g><g><text x="21" y="16" text-anchor="middle">Dried</text></g></g><g class="vtree-node" transform="translate(59,94)"><g transform="translate(30,20)"><g transform="translate(0,0)"><rect class="string-text" x="0" y="0" width="8" height="8"/><text x="4" y="4"> </text></g><g transform="translate(8,0)"><rect class="string-text" x="0" y="0" width="8" height="8"/><text x="4" y="4"> </text></g></g><g><text x="38" y="16" text-anchor="middle">Fermented</text></g></g><g class="vtree-node" transform="translate(145,94)"><g transform="translate(7,20)"><g transform="translate(0,0)"><rect class="string-text" x="0" y="0" width="8" height="8"/><text x="4" y="4"> </text></g><g transform="translate(8,0)"><rect class="string-text" x="0" y="0" width="8" height="8"/><text x="4" y="4"> </text></g></g><g><text x="15" y="16" text-anchor="middle">NA</text></g></g><g transform="translate(0,20)"><g transform="translate(0,0)"><rect class="string-text" x="0" y="0" width="38" height="24"/><text x="4" y="20">label</text></g><g transform="translate(38,0)"><rect class="string-text" x="0" y="0" width="75" height="24"/><text x="4" y="20">FoodClass</text></g></g><g><text x="57" y="16" text-anchor="middle">Legumes</text></g></g><g class="vtree-node" transform="translate(-196,94)"><g transform="translate(11,20)"><g transform="translate(0,0)"><rect class="string-text" x="0" y="0" width="8" height="8"/><text x="4" y="4"> </text></g><g transform="translate(8,0)"><rect class="string-text" x="0" y="0" width="8" height="8"/><text x="4" y="4"> </text></g></g><g><text x="19" y="16" text-anchor="middle">Nuts</text></g></g><g class="vtree-node" transform="translate(-149,94)"><g transform="translate(25,20)"><g transform="translate(0,0)"><rect class="string-text" x="0" y="0" width="8" height="8"/><text x="4" y="4"> </text></g><g transform="translate(8,0)"><rect class="string-text" x="0" y="0" width="8" height="8"/><text x="4" y="4"> </text></g></g><g><text x="33" y="16" text-anchor="middle">OilSeeds</text></g></g><g class="vtree-node" transform="translate(-14,94)"><path class="vtree-link" d="M57,32C57,75 160,75 160,118"/><path class="vtree-link" d="M57,32C57,75 97,75 97,118"/><path class="vtree-link" d="M57,32C57,75 28,75 28,118"/><path class="vtree-link" d="M57,32C57,75 -31,75 -31,118"/><g class="vtree-node" transform="translate(-60,94)"><g transform="translate(21,20)"><g transform="translate(0,0)"><rect class="string-text" x="0" y="0" width="8" height="8"/><text x="4" y="4"> </text></g><g transform="translate(8,0)"><rect class="string-text" x="0" y="0" width="8" height="8"/><text x="4" y="4"> </text></g></g><g><text x="29" y="16" text-anchor="middle">Cooked</text></g></g><g class="vtree-node" transform="translate(7,94)"><g transform="translate(13,20)"><g transform="translate(0,0)"><rect class="string-text" x="0" y="0" width="8" height="8"/><text x="4" y="4"> </text></g><g transform="translate(8,0)"><rect class="string-text" x="0" y="0" width="8" height="8"/><text x="4" y="4"> </text></g></g><g><text x="21" y="16" text-anchor="middle">Dried</text></g></g><g class="vtree-node" transform="translate(59,94)"><g transform="translate(30,20)"><g transform="translate(0,0)"><rect class="string-text" x="0" y="0" width="8" height="8"/><text x="4" y="4"> </text></g><g transform="translate(8,0)"><rect class="string-text" x="0" y="0" width="8" height="8"/><text x="4" y="4"> </text></g></g><g><text x="38" y="16" text-anchor="middle">Fermented</text></g></g><g class="vtree-node" transform="translate(145,94)"><g transform="translate(7,20)"><g transform="translate(0,0)"><rect class="string-text" x="0" y="0" width="8" height="8"/><text x="4" y="4"> </text></g><g transform="translate(8,0)"><rect class="string-text" x="0" y="0" width="8" height="8"/><text x="4" y="4"> </text></g></g><g><text x="15" y="16" text-anchor="middle">NA</text></g></g><g transform="translate(0,20)"><g transform="translate(0,0)"><rect class="string-text" x="0" y="0" width="38" height="24"/><text x="4" y="20">label</text></g><g transform="translate(38,0)"><rect class="string-text" x="0" y="0" width="75" height="24"/><text x="4" y="20">FoodClass</text></g></g><g><text x="57" y="16" text-anchor="middle">ProcessedL</text></g></g><g class="vtree-node" transform="translate(230,94)"><path class="vtree-link" d="M57,32C57,75 160,75 160,118"/><path class="vtree-link" d="M57,32C57,75 97,75 97,118"/><path class="vtree-link" d="M57,32C57,75 28,75 28,118"/><path class="vtree-link" d="M57,32C57,75 -31,75 -31,118"/><g class="vtree-node" transform="translate(-60,94)"><g transform="translate(21,20)"><g transform="translate(0,0)"><rect class="string-text" x="0" y="0" width="8" height="8"/><text x="4" y="4"> </text></g><g transform="translate(8,0)"><rect class="string-text" x="0" y="0" width="8" height="8"/><text x="4" y="4"> </text></g></g><g><text x="29" y="16" text-anchor="middle">Cooked</text></g></g><g class="vtree-node" transform="translate(7,94)"><g transform="translate(13,20)"><g transform="translate(0,0)"><rect class="string-text" x="0" y="0" width="8" height="8"/><text x="4" y="4"> </text></g><g transform="translate(8,0)"><rect class="string-text" x="0" y="0" width="8" height="8"/><text x="4" y="4"> </text></g></g><g><text x="21" y="16" text-anchor="middle">Dried</text></g></g><g class="vtree-node" transform="translate(59,94)"><g transform="translate(30,20)"><g transform="translate(0,0)"><rect class="string-text" x="0" y="0" width="8" height="8"/><text x="4" y="4"> </text></g><g transform="translate(8,0)"><rect class="string-text" x="0" y="0" width="8" height="8"/><text x="4" y="4"> </text></g></g><g><text x="38" y="16" text-anchor="middle">Fermented</text></g></g><g class="vtree-node" transform="translate(145,94)"><g transform="translate(7,20)"><g transform="translate(0,0)"><rect class="string-text" x="0" y="0" width="8" height="8"/><text x="4" y="4"> </text></g><g transform="translate(8,0)"><rect class="string-text" x="0" y="0" width="8" height="8"/><text x="4" y="4"> </text></g></g><g><text x="15" y="16" text-anchor="middle">NA</text></g></g><g transform="translate(0,20)"><g transform="translate(0,0)"><rect class="string-text" x="0" y="0" width="38" height="24"/><text x="4" y="20">label</text></g><g transform="translate(38,0)"><rect class="string-text" x="0" y="0" width="75" height="24"/><text x="4" y="20">FoodClass</text></g></g><g><text x="57" y="16" text-anchor="middle">Spices</text></g></g><g class="vtree-node" transform="translate(474,94)"><path class="vtree-link" d="M57,32C57,75 160,75 160,118"/><path class="vtree-link" d="M57,32C57,75 97,75 97,118"/><path class="vtree-link" d="M57,32C57,75 28,75 28,118"/><path class="vtree-link" d="M57,32C57,75 -31,75 -31,118"/><g class="vtree-node" transform="translate(-60,94)"><g transform="translate(21,20)"><g transform="translate(0,0)"><rect class="string-text" x="0" y="0" width="8" height="8"/><text x="4" y="4"> </text></g><g transform="translate(8,0)"><rect class="string-text" x="0" y="0" width="8" height="8"/><text x="4" y="4"> </text></g></g><g><text x="29" y="16" text-anchor="middle">Cooked</text></g></g><g class="vtree-node" transform="translate(7,94)"><g transform="translate(13,20)"><g transform="translate(0,0)"><rect class="string-text" x="0" y="0" width="8" height="8"/><text x="4" y="4"> </text></g><g transform="translate(8,0)"><rect class="string-text" x="0" y="0" width="8" height="8"/><text x="4" y="4"> </text></g></g><g><text x="21" y="16" text-anchor="middle">Dried</text></g></g><g class="vtree-node" transform="translate(59,94)"><g transform="translate(30,20)"><g transform="translate(0,0)"><rect class="string-text" x="0" y="0" width="8" height="8"/><text x="4" y="4"> </text></g><g transform="translate(8,0)"><rect class="string-text" x="0" y="0" width="8" height="8"/><text x="4" y="4"> </text></g></g><g><text x="38" y="16" text-anchor="middle">Fermented</text></g></g><g class="vtree-node" transform="translate(145,94)"><g transform="translate(7,20)"><g transform="translate(0,0)"><rect class="string-text" x="0" y="0" width="8" height="8"/><text x="4" y="4"> </text></g><g transform="translate(8,0)"><rect class="string-text" x="0" y="0" width="8" height="8"/><text x="4" y="4"> </text></g></g><g><text x="15" y="16" text-anchor="middle">NA</text></g></g><g transform="translate(0,20)"><g transform="translate(0,0)"><rect class="string-text" x="0" y="0" width="38" height="24"/><text x="4" y="20">label</text></g><g transform="translate(38,0)"><rect class="string-text" x="0" y="0" width="75" height="24"/><text x="4" y="20">FoodClass</text></g></g><g><text x="57" y="16" text-anchor="middle">UndefinedL</text></g></g><g transform="translate(0,20)"><g transform="translate(0,0)"><rect class="string-text" x="0" y="0" width="38" height="24"/><text x="4" y="20">label</text></g><g transform="translate(38,0)"><rect class="string-text" x="0" y="0" width="90" height="24"/><text x="4" y="20">SubCategory</text></g></g><g><text x="64" y="16" text-anchor="middle">Legumes</text></g></g><g transform="translate(0,0)"><rect class="string-text" x="0" y="0" width="8" height="8"/><text x="4" y="4"> </text></g><g transform="translate(8,0)"><rect class="string-text" x="0" y="0" width="8" height="8"/><text x="4" y="4"> </text></g></g></g></g></svg>