<svg xmlns:xlink="http://www.w3.org/1999/xlink" xmlns="http://www.w3.org/2000/svg" class="vtree" width="3500" height="800"><style>
.vtree-node text { font: 14px sans-serif; }
.vtree-link { fill: none; stroke: #888; stroke-width: 2px; }
.vtree-table { stroke-width: 2px; stroke: steelblue; }
path.vtree-table { fill: white; }
g.vtree-node rect { fill: white; stroke: black; stroke-width: 1px; }
g.vtree-node rect.number-text { fill: #d8f0ed; }
g.vtree-node rect.string-text { fill: #e7f0db; }
g.vtree-node rect.boolean-text { fill: #e1d8f0; }
g.vtree-node rect.null-text { fill: #888; }
</style><g class="vtree-root" transform="translate(1109.6317420897722,-44.21480212912684)scale(1.055606328618317)"><g class="vtree-node" transform="translate(480,216)"><g class="vtree-node" transform="translate(-8,0)"><path class="vtree-link" d="M8,4C8,47 8,47 8,90"/><g class="vtree-node" transform="translate(-56,58)"><path class="vtree-link" d="M64,32C64,79 1443,79 1443,126"/><path class="vtree-link" d="M64,32C64,79 1216,79 1216,126"/><path class="vtree-link" d="M64,32C64,79 361,79 361,126"/><path class="vtree-link" d="M64,32C64,79 -490,79 -490,126"/><path class="vtree-link" d="M64,32C64,79 -1014,79 -1014,126"/><g class="vtree-node" transform="translate(-1071,94)"><path class="vtree-link" d="M57,32C57,79 366,79 366,126"/><path class="vtree-link" d="M57,32C57,79 160,79 160,126"/><path class="vtree-link" d="M57,32C57,79 -46,79 -46,126"/><path class="vtree-link" d="M57,32C57,79 -252,79 -252,126"/><g class="vtree-node" transform="translate(-330,94)"><path class="vtree-link" d="M78,32C78,75 162,75 162,118"/><path class="vtree-link" d="M78,32C78,75 115,75 115,118"/><path class="vtree-link" d="M78,32C78,75 63,75 63,118"/><path class="vtree-link" d="M78,32C78,75 7,75 7,118"/><g class="vtree-node" transform="translate(-20,94)"><g transform="translate(19,20)"><g transform="translate(0,0)"><rect class="string-text" x="0" y="0" width="8" height="8"/><text x="4" y="4"> </text></g><g transform="translate(8,0)"><rect class="string-text" x="0" y="0" width="8" height="8"/><text x="4" y="4"> </text></g></g><g><text x="27" y="16" text-anchor="middle">Shrimp</text></g></g><g class="vtree-node" transform="translate(43,94)"><g transform="translate(12,20)"><g transform="translate(0,0)"><rect class="string-text" x="0" y="0" width="8" height="8"/><text x="4" y="4"> </text></g><g transform="translate(8,0)"><rect class="string-text" x="0" y="0" width="8" height="8"/><text x="4" y="4"> </text></g></g><g><text x="20" y="16" text-anchor="middle">Crab</text></g></g><g class="vtree-node" transform="translate(92,94)"><g transform="translate(15,20)"><g transform="translate(0,0)"><rect class="string-text" x="0" y="0" width="8" height="8"/><text x="4" y="4"> </text></g><g transform="translate(8,0)"><rect class="string-text" x="0" y="0" width="8" height="8"/><text x="4" y="4"> </text></g></g><g><text x="23" y="16" text-anchor="middle">Other</text></g></g><g class="vtree-node" transform="translate(147,94)"><g transform="translate(7,20)"><g transform="translate(0,0)"><rect class="string-text" x="0" y="0" width="8" height="8"/><text x="4" y="4"> </text></g><g transform="translate(8,0)"><rect class="string-text" x="0" y="0" width="8" height="8"/><text x="4" y="4"> </text></g></g><g><text x="15" y="16" text-anchor="middle">NA</text></g></g><g transform="translate(0,20)"><g transform="translate(0,0)"><rect class="string-text" x="0" y="0" width="38" height="24"/><text x="4" y="20">label</text></g><g transform="translate(38,0)"><rect class="string-text" x="0" y="0" width="118" height="24"/><text x="4" y="20">FoodClassSpecie</text></g></g><g><text x="78" y="16" text-anchor="middle">Fresh</text></g></g><g class="vtree-node" transform="translate(-124,94)"><path class="vtree-link" d="M78,32C78,75 162,75 162,118"/><path class="vtree-link" d="M78,32C78,75 115,75 115,118"/><path class="vtree-link" d="M78,32C78,75 63,75 63,118"/><path class="vtree-link" d="M78,32C78,75 7,75 7,118"/><g class="vtree-node" transform="translate(-20,94)"><g transform="translate(19,20)"><g transform="translate(0,0)"><rect class="string-text" x="0" y="0" width="8" height="8"/><text x="4" y="4"> </text></g><g transform="translate(8,0)"><rect class="string-text" x="0" y="0" width="8" height="8"/><text x="4" y="4"> </text></g></g><g><text x="27" y="16" text-anchor="middle">Shrimp</text></g></g><g class="vtree-node" transform="translate(43,94)"><g transform="translate(12,20)"><g transform="translate(0,0)"><rect class="string-text" x="0" y="0" width="8" height="8"/><text x="4" y="4"> </text></g><g transform="translate(8,0)"><rect class="string-text" x="0" y="0" width="8" height="8"/><text x="4" y="4"> </text></g></g><g><text x="20" y="16" text-anchor="middle">Crab</text></g></g><g class="vtree-node" transform="translate(92,94)"><g transform="translate(15,20)"><g transform="translate(0,0)"><rect class="string-text" x="0" y="0" width="8" height="8"/><text x="4" y="4"> </text></g><g transform="translate(8,0)"><rect class="string-text" x="0" y="0" width="8" height="8"/><text x="4" y="4"> </text></g></g><g><text x="23" y="16" text-anchor="middle">Other</text></g></g><g class="vtree-node" transform="translate(147,94)"><g transform="translate(7,20)"><g transform="translate(0,0)"><rect class="string-text" x="0" y="0" width="8" height="8"/><text x="4" y="4"> </text></g><g transform="translate(8,0)"><rect class="string-text" x="0" y="0" width="8" height="8"/><text x="4" y="4"> </text></g></g><g><text x="15" y="16" text-anchor="middle">NA</text></g></g><g transform="translate(0,20)"><g transform="translate(0,0)"><rect class="string-text" x="0" y="0" width="38" height="24"/><text x="4" y="20">label</text></g><g transform="translate(38,0)"><rect class="string-text" x="0" y="0" width="118" height="24"/><text x="4" y="20">FoodClassSpecie</text></g></g><g><text x="78" y="16" text-anchor="middle">PreCut</text></g></g><g class="vtree-node" transform="translate(82,94)"><path class="vtree-link" d="M78,32C78,75 162,75 162,118"/><path class="vtree-link" d="M78,32C78,75 115,75 115,118"/><path class="vtree-link" d="M78,32C78,75 63,75 63,118"/><path class="vtree-link" d="M78,32C78,75 7,75 7,118"/><g class="vtree-node" transform="translate(-20,94)"><g transform="translate(19,20)"><g transform="translate(0,0)"><rect class="string-text" x="0" y="0" width="8" height="8"/><text x="4" y="4"> </text></g><g transform="translate(8,0)"><rect class="string-text" x="0" y="0" width="8" height="8"/><text x="4" y="4"> </text></g></g><g><text x="27" y="16" text-anchor="middle">Shrimp</text></g></g><g class="vtree-node" transform="translate(43,94)"><g transform="translate(12,20)"><g transform="translate(0,0)"><rect class="string-text" x="0" y="0" width="8" height="8"/><text x="4" y="4"> </text></g><g transform="translate(8,0)"><rect class="string-text" x="0" y="0" width="8" height="8"/><text x="4" y="4"> </text></g></g><g><text x="20" y="16" text-anchor="middle">Crab</text></g></g><g class="vtree-node" transform="translate(92,94)"><g transform="translate(15,20)"><g transform="translate(0,0)"><rect class="string-text" x="0" y="0" width="8" height="8"/><text x="4" y="4"> </text></g><g transform="translate(8,0)"><rect class="string-text" x="0" y="0" width="8" height="8"/><text x="4" y="4"> </text></g></g><g><text x="23" y="16" text-anchor="middle">Other</text></g></g><g class="vtree-node" transform="translate(147,94)"><g transform="translate(7,20)"><g transform="translate(0,0)"><rect class="string-text" x="0" y="0" width="8" height="8"/><text x="4" y="4"> </text></g><g transform="translate(8,0)"><rect class="string-text" x="0" y="0" width="8" height="8"/><text x="4" y="4"> </text></g></g><g><text x="15" y="16" text-anchor="middle">NA</text></g></g><g transform="translate(0,20)"><g transform="translate(0,0)"><rect class="string-text" x="0" y="0" width="38" height="24"/><text x="4" y="20">label</text></g><g transform="translate(38,0)"><rect class="string-text" x="0" y="0" width="118" height="24"/><text x="4" y="20">FoodClassSpecie</text></g></g><g><text x="78" y="16" text-anchor="middle">Cooked</text></g></g><g class="vtree-node" transform="translate(288,94)"><path class="vtree-link" d="M78,32C78,75 162,75 162,118"/><path class="vtree-link" d="M78,32C78,75 115,75 115,118"/><path class="vtree-link" d="M78,32C78,75 63,75 63,118"/><path class="vtree-link" d="M78,32C78,75 7,75 7,118"/><g class="vtree-node" transform="translate(-20,94)"><g transform="translate(19,20)"><g transform="translate(0,0)"><rect class="string-text" x="0" y="0" width="8" height="8"/><text x="4" y="4"> </text></g><g transform="translate(8,0)"><rect class="string-text" x="0" y="0" width="8" height="8"/><text x="4" y="4"> </text></g></g><g><text x="27" y="16" text-anchor="middle">Shrimp</text></g></g><g class="vtree-node" transform="translate(43,94)"><g transform="translate(12,20)"><g transform="translate(0,0)"><rect class="string-text" x="0" y="0" width="8" height="8"/><text x="4" y="4"> </text></g><g transform="translate(8,0)"><rect class="string-text" x="0" y="0" width="8" height="8"/><text x="4" y="4"> </text></g></g><g><text x="20" y="16" text-anchor="middle">Crab</text></g></g><g class="vtree-node" transform="translate(92,94)"><g transform="translate(15,20)"><g transform="translate(0,0)"><rect class="string-text" x="0" y="0" width="8" height="8"/><text x="4" y="4"> </text></g><g transform="translate(8,0)"><rect class="string-text" x="0" y="0" width="8" height="8"/><text x="4" y="4"> </text></g></g><g><text x="23" y="16" text-anchor="middle">Other</text></g></g><g class="vtree-node" transform="translate(147,94)"><g transform="translate(7,20)"><g transform="translate(0,0)"><rect class="string-text" x="0" y="0" width="8" height="8"/><text x="4" y="4"> </text></g><g transform="translate(8,0)"><rect class="string-text" x="0" y="0" width="8" height="8"/><text x="4" y="4"> </text></g></g><g><text x="15" y="16" text-anchor="middle">NA</text></g></g><g transform="translate(0,20)"><g transform="translate(0,0)"><rect class="string-text" x="0" y="0" width="38" height="24"/><text x="4" y="20">label</text></g><g transform="translate(38,0)"><rect class="string-text" x="0" y="0" width="118" height="24"/><text x="4" y="20">FoodClassSpecie</text></g></g><g><text x="78" y="16" text-anchor="middle">NA</text></g></g><g transform="translate(0,20)"><g transform="translate(0,0)"><rect class="string-text" x="0" y="0" width="38" height="24"/><text x="4" y="20">label</text></g><g transform="translate(38,0)"><rect class="string-text" x="0" y="0" width="75" height="24"/><text x="4" y="20">FoodClass</text></g></g><g><text x="57" y="16" text-anchor="middle">Crustaceans</text></g></g><g class="vtree-node" transform="translate(-547,94)"><path class="vtree-link" d="M57,32C57,75 149,75 149,118"/><path class="vtree-link" d="M57,32C57,75 96,75 96,118"/><path class="vtree-link" d="M57,32C57,75 31,75 31,118"/><path class="vtree-link" d="M57,32C57,75 -28,75 -28,118"/><g class="vtree-node" transform="translate(-50,94)"><g transform="translate(14,20)"><g transform="translate(0,0)"><rect class="string-text" x="0" y="0" width="8" height="8"/><text x="4" y="4"> </text></g><g transform="translate(8,0)"><rect class="string-text" x="0" y="0" width="8" height="8"/><text x="4" y="4"> </text></g></g><g><text x="22" y="16" text-anchor="middle">Fresh</text></g></g><g class="vtree-node" transform="translate(4,94)"><g transform="translate(19,20)"><g transform="translate(0,0)"><rect class="string-text" x="0" y="0" width="8" height="8"/><text x="4" y="4"> </text></g><g transform="translate(8,0)"><rect class="string-text" x="0" y="0" width="8" height="8"/><text x="4" y="4"> </text></g></g><g><text x="27" y="16" text-anchor="middle">PreCut</text></g></g><g class="vtree-node" transform="translate(67,94)"><g transform="translate(21,20)"><g transform="translate(0,0)"><rect class="string-text" x="0" y="0" width="8" height="8"/><text x="4" y="4"> </text></g><g transform="translate(8,0)"><rect class="string-text" x="0" y="0" width="8" height="8"/><text x="4" y="4"> </text></g></g><g><text x="29" y="16" text-anchor="middle">Cooked</text></g></g><g class="vtree-node" transform="translate(134,94)"><g transform="translate(7,20)"><g transform="translate(0,0)"><rect class="string-text" x="0" y="0" width="8" height="8"/><text x="4" y="4"> </text></g><g transform="translate(8,0)"><rect class="string-text" x="0" y="0" width="8" height="8"/><text x="4" y="4"> </text></g></g><g><text x="15" y="16" text-anchor="middle">NA</text></g></g><g transform="translate(0,20)"><g transform="translate(0,0)"><rect class="string-text" x="0" y="0" width="38" height="24"/><text x="4" y="20">label</text></g><g transform="translate(38,0)"><rect class="string-text" x="0" y="0" width="75" height="24"/><text x="4" y="20">FoodClass</text></g></g><g><text x="57" y="16" text-anchor="middle">Fish</text></g></g><g class="vtree-node" transform="translate(304,94)"><path class="vtree-link" d="M57,32C57,79 612,79 612,126"/><path class="vtree-link" d="M57,32C57,79 242,79 242,126"/><path class="vtree-link" d="M57,32C57,79 -128,79 -128,126"/><path class="vtree-link" d="M57,32C57,79 -498,79 -498,126"/><g class="vtree-node" transform="translate(-576,94)"><path class="vtree-link" d="M78,32C78,75 244,75 244,118"/><path class="vtree-link" d="M78,32C78,75 197,75 197,118"/><path class="vtree-link" d="M78,32C78,75 134,75 134,118"/><path class="vtree-link" d="M78,32C78,75 65,75 65,118"/><path class="vtree-link" d="M78,32C78,75 -4,75 -4,118"/><path class="vtree-link" d="M78,32C78,75 -73,75 -73,118"/><g class="vtree-node" transform="translate(-102,94)"><g transform="translate(21,20)"><g transform="translate(0,0)"><rect class="string-text" x="0" y="0" width="8" height="8"/><text x="4" y="4"> </text></g><g transform="translate(8,0)"><rect class="string-text" x="0" y="0" width="8" height="8"/><text x="4" y="4"> </text></g></g><g><text x="29" y="16" text-anchor="middle">Cockles</text></g></g><g class="vtree-node" transform="translate(-34,94)"><g transform="translate(22,20)"><g transform="translate(0,0)"><rect class="string-text" x="0" y="0" width="8" height="8"/><text x="4" y="4"> </text></g><g transform="translate(8,0)"><rect class="string-text" x="0" y="0" width="8" height="8"/><text x="4" y="4"> </text></g></g><g><text x="30" y="16" text-anchor="middle">Mussels</text></g></g><g class="vtree-node" transform="translate(36,94)"><g transform="translate(21,20)"><g transform="translate(0,0)"><rect class="string-text" x="0" y="0" width="8" height="8"/><text x="4" y="4"> </text></g><g transform="translate(8,0)"><rect class="string-text" x="0" y="0" width="8" height="8"/><text x="4" y="4"> </text></g></g><g><text x="29" y="16" text-anchor="middle">Oysters</text></g></g><g class="vtree-node" transform="translate(103,94)"><g transform="translate(23,20)"><g transform="translate(0,0)"><rect class="string-text" x="0" y="0" width="8" height="8"/><text x="4" y="4"> </text></g><g transform="translate(8,0)"><rect class="string-text" x="0" y="0" width="8" height="8"/><text x="4" y="4"> </text></g></g><g><text x="31" y="16" text-anchor="middle">Scallops</text></g></g><g class="vtree-node" transform="translate(174,94)"><g transform="translate(15,20)"><g transform="translate(0,0)"><rect class="string-text" x="0" y="0" width="8" height="8"/><text x="4" y="4"> </text></g><g transform="translate(8,0)"><rect class="string-text" x="0" y="0" width="8" height="8"/><text x="4" y="4"> </text></g></g><g><text x="23" y="16" text-anchor="middle">Other</text></g></g><g class="vtree-node" transform="translate(229,94)"><g transform="translate(7,20)"><g transform="translate(0,0)"><rect class="string-text" x="0" y="0" width="8" height="8"/><text x="4" y="4"> </text></g><g transform="translate(8,0)"><rect class="string-text" x="0" y="0" width="8" height="8"/><text x="4" y="4"> </text></g></g><g><text x="15" y="16" text-anchor="middle">NA</text></g></g><g transform="translate(0,20)"><g transform="translate(0,0)"><rect class="string-text" x="0" y="0" width="38" height="24"/><text x="4" y="20">label</text></g><g transform="translate(38,0)"><rect class="string-text" x="0" y="0" width="118" height="24"/><text x="4" y="20">FoodClassSpecie</text></g></g><g><text x="78" y="16" text-anchor="middle">Cooked</text></g></g><g class="vtree-node" transform="translate(-206,94)"><path class="vtree-link" d="M78,32C78,75 244,75 244,118"/><path class="vtree-link" d="M78,32C78,75 197,75 197,118"/><path class="vtree-link" d="M78,32C78,75 134,75 134,118"/><path class="vtree-link" d="M78,32C78,75 65,75 65,118"/><path class="vtree-link" d="M78,32C78,75 -4,75 -4,118"/><path class="vtree-link" d="M78,32C78,75 -73,75 -73,118"/><g class="vtree-node" transform="translate(-102,94)"><g transform="translate(21,20)"><g transform="translate(0,0)"><rect class="string-text" x="0" y="0" width="8" height="8"/><text x="4" y="4"> </text></g><g transform="translate(8,0)"><rect class="string-text" x="0" y="0" width="8" height="8"/><text x="4" y="4"> </text></g></g><g><text x="29" y="16" text-anchor="middle">Cockles</text></g></g><g class="vtree-node" transform="translate(-34,94)"><g transform="translate(22,20)"><g transform="translate(0,0)"><rect class="string-text" x="0" y="0" width="8" height="8"/><text x="4" y="4"> </text></g><g transform="translate(8,0)"><rect class="string-text" x="0" y="0" width="8" height="8"/><text x="4" y="4"> </text></g></g><g><text x="30" y="16" text-anchor="middle">Mussels</text></g></g><g class="vtree-node" transform="translate(36,94)"><g transform="translate(21,20)"><g transform="translate(0,0)"><rect class="string-text" x="0" y="0" width="8" height="8"/><text x="4" y="4"> </text></g><g transform="translate(8,0)"><rect class="string-text" x="0" y="0" width="8" height="8"/><text x="4" y="4"> </text></g></g><g><text x="29" y="16" text-anchor="middle">Oysters</text></g></g><g class="vtree-node" transform="translate(103,94)"><g transform="translate(23,20)"><g transform="translate(0,0)"><rect class="string-text" x="0" y="0" width="8" height="8"/><text x="4" y="4"> </text></g><g transform="translate(8,0)"><rect class="string-text" x="0" y="0" width="8" height="8"/><text x="4" y="4"> </text></g></g><g><text x="31" y="16" text-anchor="middle">Scallops</text></g></g><g class="vtree-node" transform="translate(174,94)"><g transform="translate(15,20)"><g transform="translate(0,0)"><rect class="string-text" x="0" y="0" width="8" height="8"/><text x="4" y="4"> </text></g><g transform="translate(8,0)"><rect class="string-text" x="0" y="0" width="8" height="8"/><text x="4" y="4"> </text></g></g><g><text x="23" y="16" text-anchor="middle">Other</text></g></g><g class="vtree-node" transform="translate(229,94)"><g transform="translate(7,20)"><g transform="translate(0,0)"><rect class="string-text" x="0" y="0" width="8" height="8"/><text x="4" y="4"> </text></g><g transform="translate(8,0)"><rect class="string-text" x="0" y="0" width="8" height="8"/><text x="4" y="4"> </text></g></g><g><text x="15" y="16" text-anchor="middle">NA</text></g></g><g transform="translate(0,20)"><g transform="translate(0,0)"><rect class="string-text" x="0" y="0" width="38" height="24"/><text x="4" y="20">label</text></g><g transform="translate(38,0)"><rect class="string-text" x="0" y="0" width="118" height="24"/><text x="4" y="20">FoodClassSpecie</text></g></g><g><text x="78" y="16" text-anchor="middle">Fresh</text></g></g><g class="vtree-node" transform="translate(164,94)"><path class="vtree-link" d="M78,32C78,75 244,75 244,118"/><path class="vtree-link" d="M78,32C78,75 197,75 197,118"/><path class="vtree-link" d="M78,32C78,75 134,75 134,118"/><path class="vtree-link" d="M78,32C78,75 65,75 65,118"/><path class="vtree-link" d="M78,32C78,75 -4,75 -4,118"/><path class="vtree-link" d="M78,32C78,75 -73,75 -73,118"/><g class="vtree-node" transform="translate(-102,94)"><g transform="translate(21,20)"><g transform="translate(0,0)"><rect class="string-text" x="0" y="0" width="8" height="8"/><text x="4" y="4"> </text></g><g transform="translate(8,0)"><rect class="string-text" x="0" y="0" width="8" height="8"/><text x="4" y="4"> </text></g></g><g><text x="29" y="16" text-anchor="middle">Cockles</text></g></g><g class="vtree-node" transform="translate(-34,94)"><g transform="translate(22,20)"><g transform="translate(0,0)"><rect class="string-text" x="0" y="0" width="8" height="8"/><text x="4" y="4"> </text></g><g transform="translate(8,0)"><rect class="string-text" x="0" y="0" width="8" height="8"/><text x="4" y="4"> </text></g></g><g><text x="30" y="16" text-anchor="middle">Mussels</text></g></g><g class="vtree-node" transform="translate(36,94)"><g transform="translate(21,20)"><g transform="translate(0,0)"><rect class="string-text" x="0" y="0" width="8" height="8"/><text x="4" y="4"> </text></g><g transform="translate(8,0)"><rect class="string-text" x="0" y="0" width="8" height="8"/><text x="4" y="4"> </text></g></g><g><text x="29" y="16" text-anchor="middle">Oysters</text></g></g><g class="vtree-node" transform="translate(103,94)"><g transform="translate(23,20)"><g transform="translate(0,0)"><rect class="string-text" x="0" y="0" width="8" height="8"/><text x="4" y="4"> </text></g><g transform="translate(8,0)"><rect class="string-text" x="0" y="0" width="8" height="8"/><text x="4" y="4"> </text></g></g><g><text x="31" y="16" text-anchor="middle">Scallops</text></g></g><g class="vtree-node" transform="translate(174,94)"><g transform="translate(15,20)"><g transform="translate(0,0)"><rect class="string-text" x="0" y="0" width="8" height="8"/><text x="4" y="4"> </text></g><g transform="translate(8,0)"><rect class="string-text" x="0" y="0" width="8" height="8"/><text x="4" y="4"> </text></g></g><g><text x="23" y="16" text-anchor="middle">Other</text></g></g><g class="vtree-node" transform="translate(229,94)"><g transform="translate(7,20)"><g transform="translate(0,0)"><rect class="string-text" x="0" y="0" width="8" height="8"/><text x="4" y="4"> </text></g><g transform="translate(8,0)"><rect class="string-text" x="0" y="0" width="8" height="8"/><text x="4" y="4"> </text></g></g><g><text x="15" y="16" text-anchor="middle">NA</text></g></g><g transform="translate(0,20)"><g transform="translate(0,0)"><rect class="string-text" x="0" y="0" width="38" height="24"/><text x="4" y="20">label</text></g><g transform="translate(38,0)"><rect class="string-text" x="0" y="0" width="118" height="24"/><text x="4" y="20">FoodClassSpecie</text></g></g><g><text x="78" y="16" text-anchor="middle">PreCut</text></g></g><g class="vtree-node" transform="translate(534,94)"><path class="vtree-link" d="M78,32C78,75 244,75 244,118"/><path class="vtree-link" d="M78,32C78,75 197,75 197,118"/><path class="vtree-link" d="M78,32C78,75 134,75 134,118"/><path class="vtree-link" d="M78,32C78,75 65,75 65,118"/><path class="vtree-link" d="M78,32C78,75 -4,75 -4,118"/><path class="vtree-link" d="M78,32C78,75 -73,75 -73,118"/><g class="vtree-node" transform="translate(-102,94)"><g transform="translate(21,20)"><g transform="translate(0,0)"><rect class="string-text" x="0" y="0" width="8" height="8"/><text x="4" y="4"> </text></g><g transform="translate(8,0)"><rect class="string-text" x="0" y="0" width="8" height="8"/><text x="4" y="4"> </text></g></g><g><text x="29" y="16" text-anchor="middle">Cockles</text></g></g><g class="vtree-node" transform="translate(-34,94)"><g transform="translate(22,20)"><g transform="translate(0,0)"><rect class="string-text" x="0" y="0" width="8" height="8"/><text x="4" y="4"> </text></g><g transform="translate(8,0)"><rect class="string-text" x="0" y="0" width="8" height="8"/><text x="4" y="4"> </text></g></g><g><text x="30" y="16" text-anchor="middle">Mussels</text></g></g><g class="vtree-node" transform="translate(36,94)"><g transform="translate(21,20)"><g transform="translate(0,0)"><rect class="string-text" x="0" y="0" width="8" height="8"/><text x="4" y="4"> </text></g><g transform="translate(8,0)"><rect class="string-text" x="0" y="0" width="8" height="8"/><text x="4" y="4"> </text></g></g><g><text x="29" y="16" text-anchor="middle">Oysters</text></g></g><g class="vtree-node" transform="translate(103,94)"><g transform="translate(23,20)"><g transform="translate(0,0)"><rect class="string-text" x="0" y="0" width="8" height="8"/><text x="4" y="4"> </text></g><g transform="translate(8,0)"><rect class="string-text" x="0" y="0" width="8" height="8"/><text x="4" y="4"> </text></g></g><g><text x="31" y="16" text-anchor="middle">Scallops</text></g></g><g class="vtree-node" transform="translate(174,94)"><g transform="translate(15,20)"><g transform="translate(0,0)"><rect class="string-text" x="0" y="0" width="8" height="8"/><text x="4" y="4"> </text></g><g transform="translate(8,0)"><rect class="string-text" x="0" y="0" width="8" height="8"/><text x="4" y="4"> </text></g></g><g><text x="23" y="16" text-anchor="middle">Other</text></g></g><g class="vtree-node" transform="translate(229,94)"><g transform="translate(7,20)"><g transform="translate(0,0)"><rect class="string-text" x="0" y="0" width="8" height="8"/><text x="4" y="4"> </text></g><g transform="translate(8,0)"><rect class="string-text" x="0" y="0" width="8" height="8"/><text x="4" y="4"> </text></g></g><g><text x="15" y="16" text-anchor="middle">NA</text></g></g><g transform="translate(0,20)"><g transform="translate(0,0)"><rect class="string-text" x="0" y="0" width="38" height="24"/><text x="4" y="20">label</text></g><g transform="translate(38,0)"><rect class="string-text" x="0" y="0" width="118" height="24"/><text x="4" y="20">FoodClassSpecie</text></g></g><g><text x="78" y="16" text-anchor="middle">NA</text></g></g><g transform="translate(0,20)"><g transform="translate(0,0)"><rect class="string-text" x="0" y="0" width="38" height="24"/><text x="4" y="20">label</text></g><g transform="translate(38,0)"><rect class="string-text" x="0" y="0" width="75" height="24"/><text x="4" y="20">FoodClass</text></g></g><g><text x="57" y="16" text-anchor="middle">Molluscs</text></g></g><g class="vtree-node" transform="translate(1159,94)"><path class="vtree-link" d="M57,32C57,75 153,75 153,118"/><path class="vtree-link" d="M57,32C57,75 98,75 98,118"/><path class="vtree-link" d="M57,32C57,75 23,75 23,118"/><path class="vtree-link" d="M57,32C57,75 -38,75 -38,118"/><g class="vtree-node" transform="translate(-53,94)"><g transform="translate(7,20)"><g transform="translate(0,0)"><rect class="string-text" x="0" y="0" width="8" height="8"/><text x="4" y="4"> </text></g><g transform="translate(8,0)"><rect class="string-text" x="0" y="0" width="8" height="8"/><text x="4" y="4"> </text></g></g><g><text x="15" y="16" text-anchor="middle">Dry</text></g></g><g class="vtree-node" transform="translate(-13,94)"><g transform="translate(28,20)"><g transform="translate(0,0)"><rect class="string-text" x="0" y="0" width="8" height="8"/><text x="4" y="4"> </text></g><g transform="translate(8,0)"><rect class="string-text" x="0" y="0" width="8" height="8"/><text x="4" y="4"> </text></g></g><g><text x="36" y="16" text-anchor="middle">Marinated</text></g></g><g class="vtree-node" transform="translate(68,94)"><g transform="translate(22,20)"><g transform="translate(0,0)"><rect class="string-text" x="0" y="0" width="8" height="8"/><text x="4" y="4"> </text></g><g transform="translate(8,0)"><rect class="string-text" x="0" y="0" width="8" height="8"/><text x="4" y="4"> </text></g></g><g><text x="30" y="16" text-anchor="middle">Smoked</text></g></g><g class="vtree-node" transform="translate(138,94)"><g transform="translate(7,20)"><g transform="translate(0,0)"><rect class="string-text" x="0" y="0" width="8" height="8"/><text x="4" y="4"> </text></g><g transform="translate(8,0)"><rect class="string-text" x="0" y="0" width="8" height="8"/><text x="4" y="4"> </text></g></g><g><text x="15" y="16" text-anchor="middle">NA</text></g></g><g transform="translate(0,20)"><g transform="translate(0,0)"><rect class="string-text" x="0" y="0" width="38" height="24"/><text x="4" y="20">label</text></g><g transform="translate(38,0)"><rect class="string-text" x="0" y="0" width="75" height="24"/><text x="4" y="20">FoodClass</text></g></g><g><text x="57" y="16" text-anchor="middle">ProcessedS</text></g></g><g class="vtree-node" transform="translate(1386,94)"><path class="vtree-link" d="M57,32C57,75 149,75 149,118"/><path class="vtree-link" d="M57,32C57,75 96,75 96,118"/><path class="vtree-link" d="M57,32C57,75 31,75 31,118"/><path class="vtree-link" d="M57,32C57,75 -28,75 -28,118"/><g class="vtree-node" transform="translate(-50,94)"><g transform="translate(14,20)"><g transform="translate(0,0)"><rect class="string-text" x="0" y="0" width="8" height="8"/><text x="4" y="4"> </text></g><g transform="translate(8,0)"><rect class="string-text" x="0" y="0" width="8" height="8"/><text x="4" y="4"> </text></g></g><g><text x="22" y="16" text-anchor="middle">Fresh</text></g></g><g class="vtree-node" transform="translate(4,94)"><g transform="translate(19,20)"><g transform="translate(0,0)"><rect class="string-text" x="0" y="0" width="8" height="8"/><text x="4" y="4"> </text></g><g transform="translate(8,0)"><rect class="string-text" x="0" y="0" width="8" height="8"/><text x="4" y="4"> </text></g></g><g><text x="27" y="16" text-anchor="middle">PreCut</text></g></g><g class="vtree-node" transform="translate(67,94)"><g transform="translate(21,20)"><g transform="translate(0,0)"><rect class="string-text" x="0" y="0" width="8" height="8"/><text x="4" y="4"> </text></g><g transform="translate(8,0)"><rect class="string-text" x="0" y="0" width="8" height="8"/><text x="4" y="4"> </text></g></g><g><text x="29" y="16" text-anchor="middle">Cooked</text></g></g><g class="vtree-node" transform="translate(134,94)"><g transform="translate(7,20)"><g transform="translate(0,0)"><rect class="string-text" x="0" y="0" width="8" height="8"/><text x="4" y="4"> </text></g><g transform="translate(8,0)"><rect class="string-text" x="0" y="0" width="8" height="8"/><text x="4" y="4"> </text></g></g><g><text x="15" y="16" text-anchor="middle">NA</text></g></g><g transform="translate(0,20)"><g transform="translate(0,0)"><rect class="string-text" x="0" y="0" width="38" height="24"/><text x="4" y="20">label</text></g><g transform="translate(38,0)"><rect class="string-text" x="0" y="0" width="75" height="24"/><text x="4" y="20">FoodClass</text></g></g><g><text x="57" y="16" text-anchor="middle">UndefinedS</text></g></g><g transform="translate(0,20)"><g transform="translate(0,0)"><rect class="string-text" x="0" y="0" width="38" height="24"/><text x="4" y="20">label</text></g><g transform="translate(38,0)"><rect class="string-text" x="0" y="0" width="90" height="24"/><text x="4" y="20">SubCategory</text></g></g><g><text x="64" y="16" text-anchor="middle">Seafood</text></g></g><g transform="translate(0,0)"><rect class="string-text" x="0" y="0" width="8" height="8"/><text x="4" y="4"> </text></g><g transform="translate(8,0)"><rect class="string-text" x="0" y="0" width="8" height="8"/><text x="4" y="4"> </text></g></g></g></g></svg>