<?xml version="1.0" standalone="no"?>
<svg xmlns:xlink="http://www.w3.org/1999/xlink" xmlns="http://www.w3.org/2000/svg" class="vtree" width="1700" height="800"><style>
.vtree-node text { font: 14px sans-serif; }
.vtree-link { fill: none; stroke: #888; stroke-width: 2px; }
.vtree-table { stroke-width: 2px; stroke: steelblue; }
path.vtree-table { fill: white; }
g.vtree-node rect { fill: white; stroke: black; stroke-width: 1px; }
g.vtree-node rect.number-text { fill: #d8f0ed; }
g.vtree-node rect.string-text { fill: #e7f0db; }
g.vtree-node rect.boolean-text { fill: #e1d8f0; }
g.vtree-node rect.null-text { fill: #888; }
</style><g class="vtree-root" transform="translate(277.63174208977216,-153.21480212912684)scale(1.055606328618317)"><g class="vtree-node" transform="translate(480,263)"><g class="vtree-node" transform="translate(-8,0)"><path class="vtree-link" d="M8,4C8,47 8,47 8,90"/><g class="vtree-node" transform="translate(-56,58)"><path class="vtree-link" d="M64,32C64,79 596,79 596,126"/><path class="vtree-link" d="M64,32C64,79 318,79 318,126"/><path class="vtree-link" d="M64,32C64,79 83,79 83,126"/><path class="vtree-link" d="M64,32C64,79 -152,79 -152,126"/><path class="vtree-link" d="M64,32C64,79 -331,79 -331,126"/><path class="vtree-link" d="M64,32C64,79 -510,79 -510,126"/><g class="vtree-node" transform="translate(-567,94)"><path class="vtree-link" d="M57,32C57,75 155,75 155,118"/><path class="vtree-link" d="M57,32C57,75 102,75 102,118"/><path class="vtree-link" d="M57,32C57,75 30,75 30,118"/><path class="vtree-link" d="M57,32C57,75 -35,75 -35,118"/><g class="vtree-node" transform="translate(-56,94)"><g transform="translate(13,20)"><g transform="translate(0,0)"><rect class="string-text" x="0" y="0" width="8" height="8"/><text x="4" y="4"> </text></g><g transform="translate(8,0)"><rect class="string-text" x="0" y="0" width="8" height="8"/><text x="4" y="4"> </text></g></g><g><text x="21" y="16" text-anchor="middle">Dried</text></g></g><g class="vtree-node" transform="translate(-4,94)"><g transform="translate(26,20)"><g transform="translate(0,0)"><rect class="string-text" x="0" y="0" width="8" height="8"/><text x="4" y="4"> </text></g><g transform="translate(8,0)"><rect class="string-text" x="0" y="0" width="8" height="8"/><text x="4" y="4"> </text></g></g><g><text x="34" y="16" text-anchor="middle">Minimally</text></g></g><g class="vtree-node" transform="translate(73,94)"><g transform="translate(21,20)"><g transform="translate(0,0)"><rect class="string-text" x="0" y="0" width="8" height="8"/><text x="4" y="4"> </text></g><g transform="translate(8,0)"><rect class="string-text" x="0" y="0" width="8" height="8"/><text x="4" y="4"> </text></g></g><g><text x="29" y="16" text-anchor="middle">Cooked</text></g></g><g class="vtree-node" transform="translate(140,94)"><g transform="translate(7,20)"><g transform="translate(0,0)"><rect class="string-text" x="0" y="0" width="8" height="8"/><text x="4" y="4"> </text></g><g transform="translate(8,0)"><rect class="string-text" x="0" y="0" width="8" height="8"/><text x="4" y="4"> </text></g></g><g><text x="15" y="16" text-anchor="middle">NA</text></g></g><g transform="translate(0,20)"><g transform="translate(0,0)"><rect class="string-text" x="0" y="0" width="38" height="24"/><text x="4" y="20">label</text></g><g transform="translate(38,0)"><rect class="string-text" x="0" y="0" width="75" height="24"/><text x="4" y="20">FoodClass</text></g></g><g><text x="57" y="16" text-anchor="middle">AromaticHerbs</text></g></g><g class="vtree-node" transform="translate(-388,94)"><path class="vtree-link" d="M57,32C57,75 96,75 96,118"/><path class="vtree-link" d="M57,32C57,75 38,75 38,118"/><g class="vtree-node" transform="translate(4,94)"><g transform="translate(26,20)"><g transform="translate(0,0)"><rect class="string-text" x="0" y="0" width="8" height="8"/><text x="4" y="4"> </text></g><g transform="translate(8,0)"><rect class="string-text" x="0" y="0" width="8" height="8"/><text x="4" y="4"> </text></g></g><g><text x="34" y="16" text-anchor="middle">Minimally</text></g></g><g class="vtree-node" transform="translate(81,94)"><g transform="translate(7,20)"><g transform="translate(0,0)"><rect class="string-text" x="0" y="0" width="8" height="8"/><text x="4" y="4"> </text></g><g transform="translate(8,0)"><rect class="string-text" x="0" y="0" width="8" height="8"/><text x="4" y="4"> </text></g></g><g><text x="15" y="16" text-anchor="middle">NA</text></g></g><g transform="translate(0,20)"><g transform="translate(0,0)"><rect class="string-text" x="0" y="0" width="38" height="24"/><text x="4" y="20">label</text></g><g transform="translate(38,0)"><rect class="string-text" x="0" y="0" width="75" height="24"/><text x="4" y="20">FoodClass</text></g></g><g><text x="57" y="16" text-anchor="middle">Fresh</text></g></g><g class="vtree-node" transform="translate(-209,94)"><path class="vtree-link" d="M57,32C57,75 155,75 155,118"/><path class="vtree-link" d="M57,32C57,75 102,75 102,118"/><path class="vtree-link" d="M57,32C57,75 30,75 30,118"/><path class="vtree-link" d="M57,32C57,75 -35,75 -35,118"/><g class="vtree-node" transform="translate(-56,94)"><g transform="translate(13,20)"><g transform="translate(0,0)"><rect class="string-text" x="0" y="0" width="8" height="8"/><text x="4" y="4"> </text></g><g transform="translate(8,0)"><rect class="string-text" x="0" y="0" width="8" height="8"/><text x="4" y="4"> </text></g></g><g><text x="21" y="16" text-anchor="middle">Dried</text></g></g><g class="vtree-node" transform="translate(-4,94)"><g transform="translate(26,20)"><g transform="translate(0,0)"><rect class="string-text" x="0" y="0" width="8" height="8"/><text x="4" y="4"> </text></g><g transform="translate(8,0)"><rect class="string-text" x="0" y="0" width="8" height="8"/><text x="4" y="4"> </text></g></g><g><text x="34" y="16" text-anchor="middle">Minimally</text></g></g><g class="vtree-node" transform="translate(73,94)"><g transform="translate(21,20)"><g transform="translate(0,0)"><rect class="string-text" x="0" y="0" width="8" height="8"/><text x="4" y="4"> </text></g><g transform="translate(8,0)"><rect class="string-text" x="0" y="0" width="8" height="8"/><text x="4" y="4"> </text></g></g><g><text x="29" y="16" text-anchor="middle">Cooked</text></g></g><g class="vtree-node" transform="translate(140,94)"><g transform="translate(7,20)"><g transform="translate(0,0)"><rect class="string-text" x="0" y="0" width="8" height="8"/><text x="4" y="4"> </text></g><g transform="translate(8,0)"><rect class="string-text" x="0" y="0" width="8" height="8"/><text x="4" y="4"> </text></g></g><g><text x="15" y="16" text-anchor="middle">NA</text></g></g><g transform="translate(0,20)"><g transform="translate(0,0)"><rect class="string-text" x="0" y="0" width="38" height="24"/><text x="4" y="20">label</text></g><g transform="translate(38,0)"><rect class="string-text" x="0" y="0" width="75" height="24"/><text x="4" y="20">FoodClass</text></g></g><g><text x="57" y="16" text-anchor="middle">Fungi</text></g></g><g class="vtree-node" transform="translate(26,94)"><path class="vtree-link" d="M57,32C57,75 155,75 155,118"/><path class="vtree-link" d="M57,32C57,75 102,75 102,118"/><path class="vtree-link" d="M57,32C57,75 30,75 30,118"/><path class="vtree-link" d="M57,32C57,75 -35,75 -35,118"/><g class="vtree-node" transform="translate(-56,94)"><g transform="translate(13,20)"><g transform="translate(0,0)"><rect class="string-text" x="0" y="0" width="8" height="8"/><text x="4" y="4"> </text></g><g transform="translate(8,0)"><rect class="string-text" x="0" y="0" width="8" height="8"/><text x="4" y="4"> </text></g></g><g><text x="21" y="16" text-anchor="middle">Dried</text></g></g><g class="vtree-node" transform="translate(-4,94)"><g transform="translate(26,20)"><g transform="translate(0,0)"><rect class="string-text" x="0" y="0" width="8" height="8"/><text x="4" y="4"> </text></g><g transform="translate(8,0)"><rect class="string-text" x="0" y="0" width="8" height="8"/><text x="4" y="4"> </text></g></g><g><text x="34" y="16" text-anchor="middle">Minimally</text></g></g><g class="vtree-node" transform="translate(73,94)"><g transform="translate(21,20)"><g transform="translate(0,0)"><rect class="string-text" x="0" y="0" width="8" height="8"/><text x="4" y="4"> </text></g><g transform="translate(8,0)"><rect class="string-text" x="0" y="0" width="8" height="8"/><text x="4" y="4"> </text></g></g><g><text x="29" y="16" text-anchor="middle">Cooked</text></g></g><g class="vtree-node" transform="translate(140,94)"><g transform="translate(7,20)"><g transform="translate(0,0)"><rect class="string-text" x="0" y="0" width="8" height="8"/><text x="4" y="4"> </text></g><g transform="translate(8,0)"><rect class="string-text" x="0" y="0" width="8" height="8"/><text x="4" y="4"> </text></g></g><g><text x="15" y="16" text-anchor="middle">NA</text></g></g><g transform="translate(0,20)"><g transform="translate(0,0)"><rect class="string-text" x="0" y="0" width="38" height="24"/><text x="4" y="20">label</text></g><g transform="translate(38,0)"><rect class="string-text" x="0" y="0" width="75" height="24"/><text x="4" y="20">FoodClass</text></g></g><g><text x="57" y="16" text-anchor="middle">Roots</text></g></g><g class="vtree-node" transform="translate(261,94)"><path class="vtree-link" d="M57,32C57,75 155,75 155,118"/><path class="vtree-link" d="M57,32C57,75 102,75 102,118"/><path class="vtree-link" d="M57,32C57,75 30,75 30,118"/><path class="vtree-link" d="M57,32C57,75 -35,75 -35,118"/><g class="vtree-node" transform="translate(-56,94)"><g transform="translate(13,20)"><g transform="translate(0,0)"><rect class="string-text" x="0" y="0" width="8" height="8"/><text x="4" y="4"> </text></g><g transform="translate(8,0)"><rect class="string-text" x="0" y="0" width="8" height="8"/><text x="4" y="4"> </text></g></g><g><text x="21" y="16" text-anchor="middle">Dried</text></g></g><g class="vtree-node" transform="translate(-4,94)"><g transform="translate(26,20)"><g transform="translate(0,0)"><rect class="string-text" x="0" y="0" width="8" height="8"/><text x="4" y="4"> </text></g><g transform="translate(8,0)"><rect class="string-text" x="0" y="0" width="8" height="8"/><text x="4" y="4"> </text></g></g><g><text x="34" y="16" text-anchor="middle">Minimally</text></g></g><g class="vtree-node" transform="translate(73,94)"><g transform="translate(21,20)"><g transform="translate(0,0)"><rect class="string-text" x="0" y="0" width="8" height="8"/><text x="4" y="4"> </text></g><g transform="translate(8,0)"><rect class="string-text" x="0" y="0" width="8" height="8"/><text x="4" y="4"> </text></g></g><g><text x="29" y="16" text-anchor="middle">Cooked</text></g></g><g class="vtree-node" transform="translate(140,94)"><g transform="translate(7,20)"><g transform="translate(0,0)"><rect class="string-text" x="0" y="0" width="8" height="8"/><text x="4" y="4"> </text></g><g transform="translate(8,0)"><rect class="string-text" x="0" y="0" width="8" height="8"/><text x="4" y="4"> </text></g></g><g><text x="15" y="16" text-anchor="middle">NA</text></g></g><g transform="translate(0,20)"><g transform="translate(0,0)"><rect class="string-text" x="0" y="0" width="38" height="24"/><text x="4" y="20">label</text></g><g transform="translate(38,0)"><rect class="string-text" x="0" y="0" width="75" height="24"/><text x="4" y="20">FoodClass</text></g></g><g><text x="57" y="16" text-anchor="middle">Sprouts</text></g></g><g class="vtree-node" transform="translate(539,94)"><path class="vtree-link" d="M57,32C57,75 198,75 198,118"/><path class="vtree-link" d="M57,32C57,75 145,75 145,118"/><path class="vtree-link" d="M57,32C57,75 68,75 68,118"/><path class="vtree-link" d="M57,32C57,75 -13,75 -13,118"/><path class="vtree-link" d="M57,32C57,75 -78,75 -78,118"/><g class="vtree-node" transform="translate(-99,94)"><g transform="translate(13,20)"><g transform="translate(0,0)"><rect class="string-text" x="0" y="0" width="8" height="8"/><text x="4" y="4"> </text></g><g transform="translate(8,0)"><rect class="string-text" x="0" y="0" width="8" height="8"/><text x="4" y="4"> </text></g></g><g><text x="21" y="16" text-anchor="middle">Dried</text></g></g><g class="vtree-node" transform="translate(-47,94)"><g transform="translate(26,20)"><g transform="translate(0,0)"><rect class="string-text" x="0" y="0" width="8" height="8"/><text x="4" y="4"> </text></g><g transform="translate(8,0)"><rect class="string-text" x="0" y="0" width="8" height="8"/><text x="4" y="4"> </text></g></g><g><text x="34" y="16" text-anchor="middle">Minimally</text></g></g><g class="vtree-node" transform="translate(30,94)"><g transform="translate(30,20)"><g transform="translate(0,0)"><rect class="string-text" x="0" y="0" width="8" height="8"/><text x="4" y="4"> </text></g><g transform="translate(8,0)"><rect class="string-text" x="0" y="0" width="8" height="8"/><text x="4" y="4"> </text></g></g><g><text x="38" y="16" text-anchor="middle">Fermented</text></g></g><g class="vtree-node" transform="translate(116,94)"><g transform="translate(21,20)"><g transform="translate(0,0)"><rect class="string-text" x="0" y="0" width="8" height="8"/><text x="4" y="4"> </text></g><g transform="translate(8,0)"><rect class="string-text" x="0" y="0" width="8" height="8"/><text x="4" y="4"> </text></g></g><g><text x="29" y="16" text-anchor="middle">Cooked</text></g></g><g class="vtree-node" transform="translate(183,94)"><g transform="translate(7,20)"><g transform="translate(0,0)"><rect class="string-text" x="0" y="0" width="8" height="8"/><text x="4" y="4"> </text></g><g transform="translate(8,0)"><rect class="string-text" x="0" y="0" width="8" height="8"/><text x="4" y="4"> </text></g></g><g><text x="15" y="16" text-anchor="middle">NA</text></g></g><g transform="translate(0,20)"><g transform="translate(0,0)"><rect class="string-text" x="0" y="0" width="38" height="24"/><text x="4" y="20">label</text></g><g transform="translate(38,0)"><rect class="string-text" x="0" y="0" width="75" height="24"/><text x="4" y="20">FoodClass</text></g></g><g><text x="57" y="16" text-anchor="middle">VegProducts</text></g></g><g transform="translate(0,20)"><g transform="translate(0,0)"><rect class="string-text" x="0" y="0" width="38" height="24"/><text x="4" y="20">label</text></g><g transform="translate(38,0)"><rect class="string-text" x="0" y="0" width="90" height="24"/><text x="4" y="20">SubCategory</text></g></g><g><text x="64" y="16" text-anchor="middle">Vegetables</text></g></g><g transform="translate(0,0)"><rect class="string-text" x="0" y="0" width="8" height="8"/><text x="4" y="4"> </text></g><g transform="translate(8,0)"><rect class="string-text" x="0" y="0" width="8" height="8"/><text x="4" y="4"> </text></g></g></g></g></svg>